<svg xmlns="http://www.w3.org/2000/svg" width="200" height="152" viewBox="0 0 200 152">
    <g fill="none" fill-rule="evenodd" stroke="#7A99A9">
        <path stroke-width="1.35" d="M142.39 69.595h22.393c2.624 0 4.752 2.117 4.752 4.728v55.902c0 2.612-2.128 4.73-4.752 4.73h-22.389M54.968 134.955H34.752c-2.624 0-4.752-2.117-4.752-4.729V74.324c0-2.612 2.128-4.73 4.752-4.73h19.67"/>
        <path stroke-linecap="round" stroke-width="1.35" d="M155.857 121.262l-.177-.789a8.6 8.6 0 0 0-6.22-6.427 9.331 9.331 0 0 0-2.364-.305h-96.12c-.508 0-1.015.056-1.511.167a8.598 8.598 0 0 0-6.648 7.19"/>
        <path stroke-width="1.35" d="M67.354 113.74l1.232 7.887c.492 5.545-.262 17.42-2.238 22.829l-1.827 5.373c-.068.2.116.398.422.456l4.246.803c.342.064.696-.07.769-.293l.974-3.006c2.214-6.826 3.5-18.105 2.859-25.065l-.029-.308-.575-8.675M85.048 113.74v32.584c0 .214-.273.388-.609.388h-4.536c-.335 0-.607-.174-.607-.388V113.74M60.75 114v32.583c0 .215-.27.389-.606.389h-4.537c-.335 0-.607-.174-.607-.389V114M142.75 114v32.583c0 .215-.27.389-.606.389h-4.537c-.335 0-.607-.174-.607-.389V114M91.628 113.74c-1.202 3.32-1.487 6.716-1.487 10.123v13.49l.88 13.482c.013.209.281.373.607.373h4.61c.348 0 .625-.187.607-.41l-1.02-12.37c-.064-.786-.097-7.889-.097-8.677v-7.69c0-2.144.24-4.286.719-6.408l.432-1.912M101.972 113.722v33.53c0 .214.272.388.608.388h4.7c.336 0 .607-.174.607-.389v-33.53M113.803 113.722v32.583c0 .214.27.388.607.388h4.536c.336 0 .608-.174.608-.388v-32.583M124.705 113.722l-.463 4.314c-.625 5.818-.767 15.343-.317 21.168l.752 9.749c.016.207.283.37.607.37h4.695c.348 0 .625-.188.606-.411l-.773-9.017c-.544-6.345-.353-16.72.425-23.055l.384-3.118"/>
        <path stroke-linecap="round" stroke-width="1.35" d="M46.76 80.386h105.476"/>
        <path stroke-width="1.35" d="M53.827 93.22c0-3.296-2.686-5.967-5.999-5.967-3.311 0-5.997 2.671-5.997 5.968 0 3.296 2.686 5.967 5.997 5.967 3.313 0 5.999-2.671 5.999-5.967zM66.951 93.375c0-2.297-1.87-4.16-4.18-4.16-2.308 0-4.18 1.863-4.18 4.16 0 2.296 1.872 4.158 4.18 4.158 2.31 0 4.18-1.862 4.18-4.158z"/>
        <path stroke-width="1.44" d="M54 80V12.28C54 5.499 59.535 0 66.367 0H151"/>
        <path stroke-width="1.44" d="M161.118 52H143V9.583c0-4.936 3.819-9.245 8.869-9.563C157.402-.33 162 3.943 162 9.265V51.14c0 .476-.394.861-.882.861z"/>
        <path stroke-width="1.296" d="M143 52v28"/>
        <path stroke-width="1.35" d="M60.563 135.323h7.888M73.366 135.323h6.204M85.211 135.323h5.206M96.056 135.323h6.192M107.887 135.323h6.192M119.732 135.323h3.918M129.577 135.323h7.888"/>
        <path stroke-linecap="round" stroke-width="1.35" d="M90.14 15.64h33.66M82.703 11.715l-6.282 6.048-3.04-2.859M74.86 32.316h48.94M74.86 64.69h48.94M90.14 48.994h33.66M82.703 44.089l-6.282 6.051-3.04-2.862"/>
    </g>
</svg>
