<svg xmlns="http://www.w3.org/2000/svg" width="148" height="156" viewBox="0 0 148 156">
    <g fill="none" fill-rule="evenodd" stroke="#70757D" stroke-width="1.35">
        <path d="M37.287 30.352H3.793A2.346 2.346 0 0 0 1.45 32.7V64.77c0 .595.719.893 1.14.472L13.296 54.52h23.99a2.347 2.347 0 0 0 2.346-2.348V32.701a2.347 2.347 0 0 0-2.345-2.35z"/>
        <path d="M12.9 42.927a2.705 2.705 0 0 0-2.703-2.706 2.707 2.707 0 1 0 0 5.414 2.707 2.707 0 0 0 2.703-2.708zM23.245 42.927a2.705 2.705 0 1 0-5.408 0 2.707 2.707 0 0 0 2.703 2.708 2.707 2.707 0 0 0 2.705-2.708zM33.589 42.927a2.705 2.705 0 1 0-5.408 0 2.706 2.706 0 0 0 2.703 2.708 2.707 2.707 0 0 0 2.705-2.708zM22.366 1.307h29.2c1.127 0 2.042.916 2.042 2.047v27.958a.582.582 0 0 1-.994.412l-9.333-9.348H22.366a2.046 2.046 0 0 1-2.045-2.046V3.354c0-1.131.915-2.047 2.045-2.047z"/>
        <path d="M43.625 12.27a2.358 2.358 0 1 1 4.714 0 2.36 2.36 0 0 1-2.357 2.36 2.36 2.36 0 0 1-2.357-2.36zM34.607 12.27a2.359 2.359 0 1 1 4.715 0 2.36 2.36 0 0 1-2.357 2.36 2.36 2.36 0 0 1-2.358-2.36zM25.59 12.27a2.359 2.359 0 1 1 4.714 0 2.36 2.36 0 0 1-2.357 2.36 2.36 2.36 0 0 1-2.358-2.36zM125 91l.095-73.42c0-5.468 4.425-9.9 9.886-9.9h2.046c5.46 0 9.887 4.432 9.887 9.9v1.707l-21.82.228M74.978 155.173H14.635c-7.156 0-12.956-5.809-12.956-12.974h64.094v3.756c0 5.09 4.12 9.218 9.205 9.218 5.084 0 9.206-4.127 9.206-9.218V72.208c0-5.468 4.425-9.902 9.886-9.902h1.363c5.46 0 9.888 4.434 9.888 9.902v17.071c0 5.468 4.426 9.902 9.886 9.902 4.918 0 9-3.597 9.758-8.308M115.207 99.18H84.184"/>
        <path d="M20.09 142.4V77.027c0-8.079 6.558-14.627 14.645-14.627h60.699M62.432 61.979V11.066a3.326 3.326 0 0 1 3.322-3.325l69.228-.062"/>
        <path d="M30.33 83.55h10.42V73.116H30.33zM46.763 83.55h10.42V73.116h-10.42zM63.195 83.55h10.421V73.116h-10.42zM29.853 100.768h10.419V90.334h-10.42zM29.853 116.876h10.419v-10.434h-10.42zM46.968 132.985h10.418V122.55H46.968zM29.853 142.2h10.189v-19.65h-10.19zM46.763 116.453h10.42V89.864h-10.42zM63.195 134.308h10.421V89.864h-10.42zM108.118 114.285V99.18"/>
        <path stroke-linecap="round" d="M108.118 119.52v-1.383M108.118 144.956v-1.366M120.112 131.527h1.381M94.957 131.527h1.381M98.848 122.088l1.194.996M116.581 140.014l1.195.995M99.679 139.965l-.99.996M117.714 122.088l-10.19 9.538"/>
        <path d="M124.723 131.678c0-9.175-7.438-16.612-16.612-16.612-9.173 0-16.611 7.437-16.611 16.612 0 9.173 7.438 16.611 16.611 16.611 9.174 0 16.612-7.438 16.612-16.611z"/>
        <path stroke-linecap="round" d="M27.84 122.551h14.597M70.672 17.149h46.55M71 24h46.55M105.603 69h11.947M71 32h46.55M105.603 76h11.947M70.672 39.028h24.762M70.672 46.322h24.762M70.672 53.615h24.762"/>
        <path d="M100.893 58.236h15.89V38.587h-15.89z"/>
    </g>
</svg>
