<svg xmlns="http://www.w3.org/2000/svg" xmlns:xlink="http://www.w3.org/1999/xlink" width="355" height="360" viewBox="0 0 355 360">
    <defs>
        <path id="a" d="M0 359.837h298.257V0H0z"/>
    </defs>
    <g fill="none" fill-rule="evenodd">
        <path stroke="#00999A" d="M163.498 334.691H354.5"/>
        <g>
            <path stroke="#008182" stroke-width=".8" d="M225.643 258.34h-45.062a3.155 3.155 0 0 0-3.152 3.16v43.146c0 .8.967 1.201 1.534.634l14.403-14.424h32.277a3.158 3.158 0 0 0 3.156-3.159V261.5a3.158 3.158 0 0 0-3.156-3.16z"/>
            <path stroke="#008182" stroke-width=".8" d="M192.834 275.258a3.64 3.64 0 0 0-3.636-3.642 3.64 3.64 0 0 0-3.638 3.642 3.64 3.64 0 0 0 3.638 3.644 3.641 3.641 0 0 0 3.636-3.644zM206.752 275.258a3.64 3.64 0 0 0-3.638-3.642 3.64 3.64 0 0 0-3.638 3.642 3.642 3.642 0 0 0 3.638 3.644 3.641 3.641 0 0 0 3.638-3.644zM220.668 275.258a3.64 3.64 0 0 0-3.638-3.642 3.64 3.64 0 0 0-3.638 3.642 3.641 3.641 0 0 0 3.638 3.644 3.641 3.641 0 0 0 3.638-3.644zM259.41 92.457v44.827c0 6.631-5.004 12.423-11.622 12.851-7.25.47-13.275-5.28-13.275-12.44V116.54c0-7.396-5.996-13.39-13.391-13.39h-2.747c-7.384 0-13.37 5.985-13.37 13.37v70.765M259.41 35.235h28.586c0-7.396-5.986-13.834-13.371-13.834h-1.844c-7.385 0-13.371 5.986-13.371 13.37v27.523M191.806 240.52H149.85M161.368 190.794H82.215c-8.736 0-16.152 5.664-18.784 13.526M246.96 150.162h-41.955M189.052 21.4h85.572M172.73 67.542v-6.916M190.444 103.148h27.342M119.672 190.208v-67.662c0-10.713 8.685-19.399 19.398-19.399h14.653M179.633 48.596c-8.09-.129-109.976.017-109.976.017a20.19 20.19 0 0 0-16.666 8.796l-.816 1.192a4.54 4.54 0 0 1-2.087 1.67c-2.227.875-6.645 2.836-7.212 4.783a.737.737 0 0 0 .708.942h99.764c15.128 0 20.192-3.183 26.395-12.3"/>
            <path stroke="#008182" stroke-width=".8" d="M130.584 72.317h11.903c15.128 0 26.347-4.527 32.55-15.047M50.97 59.795h16.69a2.122 2.122 0 1 0 0-4.244H54.43M42.883 65.469c0 3.49 1.603 6.848 6.16 6.848h57.202M99.494 65.996l25.634 24a6.232 6.232 0 0 0 4.262 1.684l9.334.337c1.26.045 2.088-1.305 1.475-2.407l-13.13-23.614M108.04 48.613l12.064-12.063a7.262 7.262 0 0 1 5.136-2.127h8.813c1.158 0 1.847 1.293 1.202 2.255l-8.006 11.935M179.94 48.543l10.674-26.227a.667.667 0 0 0-.618-.918h-8.317a.665.665 0 0 0-.546.284l-18.917 26.931 19.092 12.89a.794.794 0 0 0 .445.137h7.648a.598.598 0 0 0 .463-.977l-9.925-12.12zM88.422 57.673a2.508 2.508 0 1 0-5.016 0 2.508 2.508 0 0 0 5.016 0zM101.344 57.673a2.508 2.508 0 1 0-5.016 0 2.508 2.508 0 0 0 5.016 0zM114.266 57.673a2.508 2.508 0 1 0-5.016.001 2.508 2.508 0 0 0 5.016 0zM127.187 57.673a2.508 2.508 0 1 0-5.016 0 2.508 2.508 0 0 0 5.016 0zM140.11 57.673a2.508 2.508 0 1 0-5.018.001 2.508 2.508 0 0 0 5.017 0zM160.854 110.4h24.016a5.773 5.773 0 0 0 5.77-5.777 5.773 5.773 0 0 0-5.77-5.776l-1.794.001c0-6.47-3.95-12.644-11.23-12.644-6.068 0-10.362 4.201-10.362 9.281-4.287 0-7.762 3.48-7.762 7.773 0 3.945 3.193 7.142 7.132 7.142zM164.137 24.596H140.12a5.772 5.772 0 0 1-5.768-5.777 5.772 5.772 0 0 1 5.768-5.777l1.795.002c0-6.47 3.951-12.644 11.231-12.644 6.067 0 10.361 4.201 10.361 9.281 4.287 0 7.761 3.48 7.761 7.773 0 3.945-3.193 7.142-7.13 7.142zM172.73 86.204V67.542M101.248 225.136h38.402M103.246 232.853h36.404M87.687 229.691h9.15M87.687 222.666h6.733M107.666 216.774h32.48M77.797 282.637H139.4M91.053 290.354H139.4M91.299 274.275h48.847M131.954 141.44h61.604M145.455 130.075h48.849M77.005 234.15c5.64 1.978 9.83 6.753 10.656 12.436.18 1.237-.57 2.409-1.713 2.859-3.631 1.433-8.846 2.33-14.64 2.33-5.919 0-11.233-.937-14.873-2.423-1.108-.452-1.823-1.606-1.659-2.813a14.392 14.392 0 0 1 2.016-5.604c1.907-3.103 4.957-5.531 8.624-6.796"/>
            <path stroke="#008182" stroke-width=".8" d="M73.124 235.688l-.335 2.142c0 .173-.112.314-.252.314h-2.631c-.138 0-.252-.14-.252-.315l-.337-2.142M69.893 238.145l-1.589 8.86a.579.579 0 0 0 .23.558l2.271 1.832a.959.959 0 0 0 1.152-.002l2.24-1.821c.185-.151.27-.365.223-.575l-1.94-8.852"/>
            <path stroke="#008182" stroke-width=".8" d="M81.646 225.477c0-5.758-4.668-10.426-10.426-10.426s-10.426 4.668-10.426 10.426 4.668 10.426 10.426 10.426 10.426-4.668 10.426-10.426zM205.005 187.284v39.83c0 3.307-1.086 6.585-3.313 9.032a13.33 13.33 0 0 1-10.492 4.36c-7.22-.32-12.763-6.576-12.763-13.804v-22.685c0-7.384-5.987-13.364-13.371-13.364h-1.845c-7.384 0-13.37 5.986-13.37 13.37v88.229"/>
            <mask id="b" fill="#fff">
                <use xlink:href="#a"/>
            </mask>
            <path stroke="#008182" stroke-width=".8" d="M81.36 154.596h12.654v-6.117H81.36zM91.386 148.479v-21.136a2.84 2.84 0 0 1 2.84-2.84h.592a2.84 2.84 0 1 1 0 5.68H80.555a2.84 2.84 0 1 1 0-5.68h.592a2.84 2.84 0 0 1 2.84 2.84v21.136" mask="url(#b)"/>
            <path stroke="#008182" stroke-width=".8" d="M91.386 145.633c8.853-1.725 15.534-9.52 15.534-18.878 0-10.622-8.61-19.234-19.233-19.234-10.623 0-19.235 8.612-19.235 19.234 0 9.295 6.594 17.05 15.358 18.843M296.646 62.218L250.28 99.872a1.07 1.07 0 0 1-1.482-.131L234.925 83.52a1.016 1.016 0 0 1 .132-1.451l46.366-37.652c1.431-1.178 3.568-.991 4.765.413l10.88 12.722a3.263 3.263 0 0 1-.422 4.666z" mask="url(#b)"/>
            <path stroke="#008182" stroke-width=".8" d="M249.714 100.105l-17.53-.2a.349.349 0 0 1-.341-.397l2.849-16.78M232.595 94.546l4.596 5.372M281.815 53.36l-42.907 34.818M287.722 60.408l-42.907 34.818M277.158 47.913l15.222 17.804M238.918 193.46v-43.918" mask="url(#b)"/>
            <path stroke="#008182" stroke-linecap="round" stroke-width=".8" d="M238.918 199.301v-1.742M238.918 231.365v-1.723M254.036 214.437h1.74M222.327 214.437h1.74M227.232 202.538l1.504 1.257M249.586 225.134l1.505 1.255M228.279 225.074l-1.249 1.255M251.012 202.538l-12.845 12.023M259.847 214.627c0-11.565-9.375-20.94-20.938-20.94-11.565 0-20.94 9.375-20.94 20.94 0 11.563 9.375 20.938 20.94 20.938 11.563 0 20.938-9.375 20.938-20.938z" mask="url(#b)"/>
            <path stroke="#008182" stroke-width=".8" d="M121.382 317.016l41.071 38.908M63.153 268.76l-13.641 11.5a.124.124 0 0 0 0 .185l41.915 36.571h30.105l41.915-36.57a.123.123 0 0 0 0-.186l-13.64-11.5M91.579 317.016l-41.073 38.908" mask="url(#b)"/>
            <path stroke="#008182" stroke-width=".8" d="M49.471 280.351v71.833c0 4.007 3.24 7.253 7.233 7.253h99.55c3.995 0 7.235-3.246 7.235-7.253v-71.833M146.978 179.375v-27.761M162.511 179.375v-27.761M131.445 178.049c0 .75.608 1.36 1.36 1.36h59.325c.799 0 1.448-.506 1.448-1.131v-25.5c0-.624-.649-1.13-1.448-1.13h-59.322a1.36 1.36 0 0 0-1.36 1.359l-.003 25.042zM178.045 179.904v-27.761M193.332 160.862h-62.195M193.332 169.977h-62.195M139.65 254.775c0-4.514-3.65-8.175-8.154-8.175s-8.156 3.66-8.156 8.175c0 4.513 3.652 8.17 8.156 8.17 4.504 0 8.154-3.657 8.154-8.17zM63.088 265.32l.045 26.958M46.105 229.5c2.946-14.028 16.707-23.01 30.734-20.065 14.03 2.947 23.012 16.708 20.066 30.736-2.946 14.028-16.707 23.012-30.736 20.065-14.027-2.947-23.01-16.707-20.064-30.736z" mask="url(#b)"/>
            <path stroke="#008182" stroke-width=".8" d="M40.898 228.407c3.551-16.904 20.132-27.729 37.035-24.178 16.904 3.55 27.73 20.131 24.18 37.035-3.552 16.903-20.133 27.728-37.037 24.178-16.904-3.55-27.729-20.13-24.178-37.035zM33.156 249.593l-5.39 3.52 9.33 14.291 5.424-3.54a.804.804 0 0 0 .232-1.112l-8.49-12.928a.801.801 0 0 0-1.106-.23z" mask="url(#b)"/>
            <path stroke="#008182" stroke-width=".8" d="M27.737 253.131L3.512 268.945a1.013 1.013 0 0 0-.294 1.4l8.226 12.598a1.01 1.01 0 0 0 1.399.294L37.105 267.4l-9.368-14.268zM43.258 248.114l-7.085 4.625M48.347 255.909l-7.085 4.625" mask="url(#b)"/>
            <path stroke="#008182" stroke-width=".8" d="M3.739 271.142l-1.964 1.282a3.033 3.033 0 0 0-.882 4.197l3.86 5.913a3.035 3.035 0 0 0 4.198.881l1.964-1.282M31.006 258.074L15 268.523M87.687 154.596v36.199" mask="url(#b)"/>
        </g>
    </g>
</svg>
