<svg xmlns="http://www.w3.org/2000/svg" width="137" height="144" viewBox="0 0 137 144">
    <g fill="none" fill-rule="evenodd" stroke="#70757D" stroke-width="1.521">
        <path d="M16.028 56.746H30.97v-7.219H16.028zM19.545 64.143h7.909v-7.218h-7.909z"/>
        <path d="M27.87 49.528V24.59a3.35 3.35 0 0 1 3.354-3.347h.7a3.35 3.35 0 0 1 0 6.698H15.082a3.351 3.351 0 0 1-3.354-3.351 3.35 3.35 0 0 1 3.354-3.347h.7a3.35 3.35 0 0 1 3.349 3.347v24.938"/>
        <path d="M27.87 46.17c10.452-2.036 18.34-11.232 18.34-22.27 0-12.533-10.168-22.693-22.71-22.693C10.958 1.207.79 11.367.79 23.9c0 10.965 7.783 20.114 18.134 22.23M58.319 115.527V34.661h77.638v89.784c0 5.356-4.35 9.702-9.715 9.702h-73.02M58.319 55.384h77.638"/>
        <path d="M78.655 48.822h37.3V41.91h-37.3zM68.545 82.732h20.209V62.539H68.545zM105.85 123.118h20.21v-20.193h-20.21z"/>
        <path stroke-linecap="round" d="M97.814 62.536h29.634M97.814 72.633h29.634M97.814 82.728h29.634M69.034 92.827h58.415M69.034 102.924h27.807M69.034 113.022h27.807M69.034 123.119h27.807"/>
        <path d="M118.074 134.957v8.218h-90.15V95.828c0-5.12 3.455-9.25 7.683-9.197 4.16.058 7.508 4.157 7.508 9.197v29.595c0 5.135 3.465 9.281 7.714 9.223 4.176-.052 7.54-4.172 7.54-9.223V86.531H35.711"/>
    </g>
</svg>
