<svg xmlns="http://www.w3.org/2000/svg" xmlns:xlink="http://www.w3.org/1999/xlink" width="163" height="106" viewBox="0 0 163 106">
    <defs>
        <path id="a" d="M0 0h163v106H0z"/>
    </defs>
    <g fill="none" fill-rule="evenodd">
        <g stroke="#70757D" stroke-width="1.35">
            <path d="M148.49 45.112V25.889c0-12.965-10.425-23.495-23.336-23.566-13.012-.075-23.6 10.5-23.6 23.566V94.35c0 3.927-3.169 7.111-7.08 7.111-3.91 0-7.079-3.184-7.079-7.11V21.015c0-3.852-3.111-6.976-6.949-6.976-3.838 0-6.949 3.124-6.949 6.976v3.555H5.32v-4.085c0-3.532 2.849-6.395 6.366-6.397l68.76-.05"/>
            <path d="M19.218 24.572v68.42c0 4.127 3.331 7.474 7.44 7.474h64.2M33.821 14.07C37.563 7.083 44.993 2.322 53.545 2.322h71.609M148.49 30.026l8.903 7.81-27.215 23.797h-18.514l-10.294-8.704M101.37 70.76l10.292-9.128M130.177 61.633l27.215 24.921"/>
            <path d="M157.393 37.834V84.46c0 2.601-2.1 4.708-4.69 4.708H101.37M27.914 42.014h44.698a.9.9 0 0 0 .9-.9v-8.427a.9.9 0 0 0-.9-.9H27.914a.9.9 0 0 0-.9.9v8.427a.9.9 0 0 0 .9.9z"/>
            <path stroke-linecap="round" d="M27.014 48.33h33.697M27.014 53.852h33.697M27.014 60.308h46.499M27.014 66.767h46.499M27.014 73.223h46.499"/>
            <path d="M73.513 86.49c0-3.173-2.562-5.748-5.722-5.748-3.16 0-5.723 2.575-5.723 5.748 0 3.174 2.562 5.747 5.723 5.747 3.16 0 5.722-2.573 5.722-5.747zM109.92 47.398V26.36M119.323 47.398V26.36M101.587 26.387h36.291a.9.9 0 0 1 .9.9v19.236a.9.9 0 0 1-.9.9h-36.294M129.181 47.798V26.762M138.632 33.37h-36.747M138.632 40.276h-36.747"/>
        </g>
        <g>
            <use fill="#F00" fill-opacity=".3" xlink:href="#a"/>
            <path stroke="#F00" d="M.5.5h162v105H.5z"/>
        </g>
    </g>
</svg>
