<svg xmlns="http://www.w3.org/2000/svg" width="188" height="157" viewBox="0 0 188 157">
    <g fill="none" fill-rule="evenodd" stroke="#70757D">
        <path stroke-width="1.5" d="M21.99 112v16.61h74.79M120.39 86.688V14.343c0-7.508-6.085-13.593-13.593-13.593H8.872"/>
        <path stroke-width="1.5" d="M108.66 20.128H59.73v-9.69h48.93zM50.075 92.266h42.36V46.623H65.777v18.054H50.075zM38.869 92.266V63.303M43.108 63.303H34.63M43.108 92.266H34.63M66.15 34.903h26.664M92.816 39.145v-8.479M66.15 39.145v-8.479M104.42 92.266V44.949M108.66 44.952h-8.478M108.66 92.266h-8.478M75.971 118.987H35.783v-11.532h40.188zM49.016 118.987v-11.532M61.784 118.987v-11.532M75.97 113.221H35.78"/>
        <g stroke-width="1.5">
            <path d="M43.083 140.055h97.118a2 2 0 0 1 2 2v13.618H41.083v-13.618a2 2 0 0 1 2-2zM136.263 145.809v-5.754M128.825 145.809v-5.754M121.39 145.809v-5.754M113.953 145.809v-5.754M106.515 145.809v-5.754M99.08 145.809v-5.754M91.641 145.809v-5.754M84.206 145.809v-5.754M76.767 145.809v-5.754M69.332 145.809v-5.754M61.893 145.809v-5.754M54.457 145.809v-5.754M47.022 145.809v-5.754"/>
        </g>
        <path stroke-width="1.8" d="M129.282 55.299c0-6.294 5.105-11.388 11.394-11.388 6.293 0 11.394 5.094 11.394 11.388 0 6.3-5.101 11.394-11.394 11.394-6.29 0-11.394-5.094-11.394-11.394z"/>
        <path stroke-linecap="round" stroke-width="1.8" d="M168.794 85.598c-7.36 7.416-17.25 11.964-28.134 11.964-10.704 0-20.46-4.398-27.78-11.61"/>
        <path stroke-width="1.8" d="M134.813 55.3a5.869 5.869 0 0 1 5.868-5.869 5.868 5.868 0 0 1 5.862 5.868c0 3.24-2.622 5.874-5.862 5.874a5.87 5.87 0 0 1-5.868-5.874zM137.801 43.909v-6.46a2 2 0 0 1 2-2h1.755a2 2 0 0 1 2 2v6.46M147.835 64.13l30.594 50.855v4.044h-4.344l-31.422-52.512M133.96 64.13l-30.594 50.855v4.044h4.344l31.422-52.512"/>
        <path stroke-linecap="round" stroke-width="1.8" d="M178.43 119.032l8.67 12.366M103.5 119.032l-8.67 12.366M120.39 97.844v30.768H96.781"/>
        <path stroke-width="1.5" d="M1.607 113.228H21.99V10.942C21.99 5.313 17.427.75 11.798.75 6.168.75 1.607 5.313 1.607 10.942v102.286z"/>
    </g>
</svg>
