<svg xmlns="http://www.w3.org/2000/svg" width="459" height="186" viewBox="0 0 459 186">
    <g fill="none" fill-rule="evenodd" stroke="#7A99A9" stroke-width="1.35">
        <path d="M84.399 118.102a1.219 1.219 0 0 1-.484-.763l-1.893-9.997a1.223 1.223 0 0 1 .974-1.428l9.998-1.893a1.222 1.222 0 0 1 1.428.975l1.893 9.998a1.222 1.222 0 0 1-.975 1.428l-9.998 1.891a1.222 1.222 0 0 1-.943-.21zM60.913 73.827A3.918 3.918 0 0 1 57 69.914 3.92 3.92 0 0 1 60.913 66a3.92 3.92 0 0 1 3.913 3.914 3.916 3.916 0 0 1-3.913 3.913zM24.743 184.826a3.918 3.918 0 0 1-3.913-3.913A3.918 3.918 0 0 1 24.743 177a3.918 3.918 0 0 1 3.913 3.913 3.916 3.916 0 0 1-3.913 3.913zM136.913 184.827a3.918 3.918 0 0 1-3.913-3.914 3.918 3.918 0 0 1 3.913-3.913 3.918 3.918 0 0 1 3.913 3.913 3.917 3.917 0 0 1-3.913 3.914zM159.277 66.786a1.221 1.221 0 0 1-.864.5l-14.065 1.46a1.224 1.224 0 0 1-1.111-.49 1.223 1.223 0 0 1-.137-1.206l5.724-13.311a1.224 1.224 0 0 1 2.122-.221l8.339 11.848a1.224 1.224 0 0 1-.008 1.42zM80.833 164.232a1.216 1.216 0 0 1 .404 1.474l-5.75 13.3a1.223 1.223 0 0 1-2.123.217l-8.316-11.864a1.223 1.223 0 0 1 .876-1.917l14.066-1.436a1.22 1.22 0 0 1 .843.226zM1 125l17.794.477M68 25.492l2.473-1.182a13.384 13.384 0 0 1 16.209 3.695l2.459 3.064a13.383 13.383 0 0 0 17.036 3.263l2.419-1.371M132.236 133L118 145.126M224.368 46.03c2.814.018 9.67-.656 12.95-7.251 1.96-3.943.414-6.07-1.386-7.187-2.126-1.32-5.045-.352-5.518 2.107-.328 1.71.609 3.84 5.015 6.278 5.9 3.267 14.27 2.04 17.306 1.282M443.848 83.956c.274.128.595.155.903.052l9.654-3.212a1.223 1.223 0 0 0 .774-1.546l-3.213-9.655a1.222 1.222 0 0 0-1.546-.774l-9.655 3.213a1.219 1.219 0 0 0-.774 1.546l3.212 9.655c.112.332.352.584.645.72zM372.224 119.468c.296-.057.572-.223.76-.487l5.941-8.26a1.223 1.223 0 0 0-.279-1.706l-8.261-5.941a1.222 1.222 0 0 0-1.706.28l-5.941 8.261a1.222 1.222 0 0 0 .28 1.707l8.262 5.939c.285.203.625.268.944.207zM398.433 73.46a3.918 3.918 0 0 0 5.2-1.892 3.92 3.92 0 0 0-1.892-5.201 3.92 3.92 0 0 0-5.2 1.893 3.916 3.916 0 0 0 1.892 5.2zM387.546 153.746a3.918 3.918 0 0 0 5.2-1.892 3.918 3.918 0 0 0-1.892-5.2 3.918 3.918 0 0 0-5.2 1.892 3.916 3.916 0 0 0 1.892 5.2zM322.433 184.46a3.918 3.918 0 0 0 5.2-1.893 3.918 3.918 0 0 0-1.892-5.2 3.918 3.918 0 0 0-5.2 1.892 3.917 3.917 0 0 0 1.892 5.201zM184.546 13.746a3.918 3.918 0 0 0 5.2-1.892 3.918 3.918 0 0 0-1.892-5.2 3.918 3.918 0 0 0-5.2 1.892 3.918 3.918 0 0 0 1.892 5.2zM289.546 8.746a3.918 3.918 0 0 0 5.2-1.892 3.918 3.918 0 0 0-1.892-5.2 3.918 3.918 0 0 0-5.2 1.892 3.918 3.918 0 0 0 1.892 5.2zM305.04 71.591c.065.338.271.639.572.819l12.13 7.268c.37.222.832.233 1.214.025.38-.208.622-.602.634-1.036l.438-14.483a1.224 1.224 0 0 0-1.83-1.097l-12.565 7.214a1.224 1.224 0 0 0-.593 1.29zM427.012 164.424a1.216 1.216 0 0 0-.99 1.165l-.41 14.482a1.223 1.223 0 0 0 1.833 1.096l12.551-7.238a1.223 1.223 0 0 0 .016-2.108l-12.14-7.246a1.22 1.22 0 0 0-.86-.151zM458.378 128.807l-16.329-7.088M391.808 34.45l-1.742-2.117a13.384 13.384 0 0 0-16.252-3.502l-3.523 1.738a13.383 13.383 0 0 1-16.82-4.242l-1.612-2.265M314.75 137.051l18.263 4.024"/>
    </g>
</svg>
