<svg xmlns="http://www.w3.org/2000/svg" width="139" height="144" viewBox="0 0 139 144">
    <g fill="none" fill-rule="evenodd">
        <path stroke="#7A99A9" stroke-width="1.35" d="M64.092 17.942h63.025c5.017 0 9.081 4.104 9.081 9.176v91.867H72.647V25.922c0-4.407-3.833-7.975-8.555-7.975-4.723 0-8.556 3.568-8.556 7.975v29.656h-17.11V9.27c0-4.402-3.833-7.975-8.555-7.975-4.723 0-8.556 3.573-8.556 7.975v46.084M72.647 89H61.489"/>
        <path stroke="#7A99A9" stroke-width="1.35" d="M29.87 1.296h69.033c5.012 0 9.081 4.104 9.081 9.171v7.475"/>
        <path d="M1.068 142.096h60.435V54.915H1.068z"/>
        <path stroke="#7A99A9" stroke-width="1.35" d="M2.068 142.783h58.435a1 1 0 0 0 1-1V56.602a1 1 0 0 0-1-1H2.068a1 1 0 0 0-1 1v85.181a1 1 0 0 0 1 1z"/>
        <path stroke="#7A99A9" stroke-width="1.35" d="M12.045 83.405h38.482a2 2 0 0 0 2-2V68.758a2 2 0 0 0-2-2H12.045a2 2 0 0 0-2 2v12.647a2 2 0 0 0 2 2zM17.162 93.418c0-1.663-1.335-3.01-2.974-3.01-1.643 0-2.978 1.346-2.978 3.01 0 1.663 1.335 3.01 2.978 3.01 1.64 0 2.974-1.347 2.974-3.01zM28.792 93.418c0-1.663-1.335-3.01-2.974-3.01-1.646 0-2.978 1.344-2.978 3.01 0 1.665 1.332 3.01 2.978 3.01 1.64 0 2.974-1.347 2.974-3.01zM40.422 93.418c0-1.663-1.335-3.01-2.974-3.01-1.647 0-2.979 1.344-2.979 3.01 0 1.665 1.332 3.01 2.98 3.01 1.638 0 2.973-1.347 2.973-3.01zM52.052 93.418c0-1.663-1.335-3.01-2.974-3.01-1.647 0-2.979 1.344-2.979 3.01 0 1.665 1.332 3.01 2.98 3.01 1.638 0 2.973-1.347 2.973-3.01zM17.162 105.307c0-1.663-1.335-3.01-2.974-3.01-1.643 0-2.978 1.347-2.978 3.01 0 1.664 1.335 3.01 2.978 3.01 1.64 0 2.974-1.347 2.974-3.01zM28.792 105.307c0-1.663-1.335-3.01-2.974-3.01-1.646 0-2.978 1.345-2.978 3.01 0 1.666 1.332 3.01 2.978 3.01 1.64 0 2.974-1.347 2.974-3.01zM40.422 105.307c0-1.663-1.335-3.01-2.974-3.01-1.647 0-2.979 1.345-2.979 3.01 0 1.666 1.332 3.01 2.98 3.01 1.638 0 2.973-1.347 2.973-3.01zM52.052 105.307c0-1.663-1.335-3.01-2.974-3.01-1.647 0-2.979 1.345-2.979 3.01 0 1.666 1.332 3.01 2.98 3.01 1.638 0 2.973-1.347 2.973-3.01zM17.162 117.192c0-1.663-1.335-3.01-2.974-3.01-1.643 0-2.978 1.347-2.978 3.01 0 1.664 1.335 3.01 2.978 3.01 1.64 0 2.974-1.347 2.974-3.01zM28.792 117.192c0-1.663-1.335-3.01-2.974-3.01-1.646 0-2.978 1.345-2.978 3.01 0 1.666 1.332 3.01 2.978 3.01 1.64 0 2.974-1.347 2.974-3.01zM40.422 117.192c0-1.663-1.335-3.01-2.974-3.01-1.647 0-2.979 1.345-2.979 3.01 0 1.666 1.332 3.01 2.98 3.01 1.638 0 2.973-1.347 2.973-3.01zM52.052 117.192c0-1.663-1.335-3.01-2.974-3.01-1.647 0-2.979 1.345-2.979 3.01 0 1.666 1.332 3.01 2.98 3.01 1.638 0 2.973-1.347 2.973-3.01zM17.162 129.082c0-1.663-1.335-3.01-2.974-3.01-1.643 0-2.978 1.346-2.978 3.01 0 1.664 1.335 3.01 2.978 3.01 1.64 0 2.974-1.347 2.974-3.01zM28.792 129.082c0-1.663-1.335-3.01-2.974-3.01-1.646 0-2.978 1.344-2.978 3.01 0 1.666 1.332 3.01 2.978 3.01 1.64 0 2.974-1.347 2.974-3.01zM40.422 129.082c0-1.663-1.335-3.01-2.974-3.01-1.647 0-2.979 1.344-2.979 3.01 0 1.666 1.332 3.01 2.98 3.01 1.638 0 2.973-1.347 2.973-3.01zM52.052 129.082c0-1.663-1.335-3.01-2.974-3.01-1.647 0-2.979 1.344-2.979 3.01 0 1.666 1.332 3.01 2.98 3.01 1.638 0 2.973-1.347 2.973-3.01zM96.742 37.23h32.468M89.896 33.17l-6.06 5.875-2.933-2.777M96.742 53.097h32.468M89.896 49.04l-6.06 5.875-2.933-2.781M96.742 68.964h32.468M89.896 64.904l-6.06 5.879-2.933-2.78M95.486 84.925h32.468M95.486 99.573h32.468M72.385 140.239h56.365v-9.145H72.385zM129.354 130.926l7.497 4.763-7.497 4.775"/>
    </g>
</svg>
