<svg xmlns="http://www.w3.org/2000/svg" width="163" height="107" viewBox="0 0 163 107">
    <g fill="none" fill-rule="evenodd" stroke="#70757D" stroke-width="1.35">
        <path d="M151.993 46.267V26.083c0-13.613-10.97-24.67-24.557-24.743-13.691-.08-24.833 11.024-24.833 24.743v71.885c0 4.123-3.335 7.466-7.45 7.466s-7.45-3.343-7.45-7.466V20.967c0-4.045-3.274-7.325-7.312-7.325-4.039 0-7.312 3.28-7.312 7.325V24.7H1.337v-4.29c0-3.709 2.997-6.714 6.698-6.717l72.356-.051"/>
        <path d="M15.962 24.7v71.842c0 4.333 3.505 7.847 7.83 7.847h67.556M31.328 13.674C35.266 6.337 43.084 1.338 52.083 1.338h75.353M151.993 30.428l9.368 8.199-28.638 24.987H113.24l-10.832-9.138M102.41 73.199l10.829-9.585M132.722 63.614l28.638 26.168"/>
        <path d="M161.36 38.626v48.956a4.94 4.94 0 0 1-4.935 4.944H102.41M25.065 43.015h47.13a.9.9 0 0 0 .9-.9v-8.938a.9.9 0 0 0-.9-.9h-47.13a.9.9 0 0 0-.9.9v8.938a.9.9 0 0 0 .9.9z"/>
        <path stroke-linecap="round" d="M24.166 49.647h35.458M24.166 55.445h35.458M24.166 62.224h48.93M24.166 69.005h48.93M24.166 75.785h48.93"/>
        <path d="M73.096 89.715c0-3.333-2.696-6.036-6.022-6.036s-6.022 2.703-6.022 6.036c0 3.332 2.696 6.034 6.022 6.034s6.022-2.702 6.022-6.034zM111.406 48.668V26.579M121.3 48.668V26.579M102.637 26.606h38.236a.9.9 0 0 1 .9.9v20.288a.9.9 0 0 1-.9.9h-38.239M131.675 49.088V27M141.62 33.938h-38.67M141.62 41.19h-38.67"/>
    </g>
</svg>
