<svg xmlns="http://www.w3.org/2000/svg" width="121" height="93" viewBox="0 0 121 93">
    <g fill="none" fill-rule="evenodd" stroke="#70757D" stroke-width="1.4">
        <path d="M40.335 42.422H2.619c-.67 0-1.216.533-1.216 1.193v39.789c0 .66.545 1.193 1.216 1.193h38.218"/>
        <path stroke-linecap="round" d="M26.563 35.171h13.805M26.563 27.286h13.805"/>
        <path d="M39.846 19.429h-12.9a.88.88 0 0 1-.88-.88V12.48a.88.88 0 0 1 .88-.88h12.9"/>
        <path d="M51.338 92.144h56.736c4.145 0 7.503-3.288 7.503-7.344v-3.43H62.34c0 5.95-4.925 10.774-11.002 10.774-6.077 0-11.003-4.824-11.003-10.775V11.431c0-5.541-4.59-10.036-10.25-10.036-5.662 0-10.252 4.495-10.252 10.036v31.196"/>
        <path d="M101.082 8.257c-1.358-3.988-5.2-6.864-9.727-6.864H31.008M100.373 39.32v42.05M94.165 73.198c0 .15-.124.271-.277.271H70.785a.273.273 0 0 1-.276-.27V58.94c0-.147.123-.268.276-.268h23.103c.153 0 .277.12.277.268v14.257z"/>
        <path d="M92.5 73.469L85.3 65.8a.51.51 0 0 0-.714-.03l-3.37 3.133a.51.51 0 0 1-.595.067l-3.131-1.777a.508.508 0 0 0-.64.113l-4.964 6.162M91.22 62.976c0-.872-.721-1.576-1.609-1.576-.89 0-1.611.704-1.611 1.576 0 .871.721 1.575 1.611 1.575.888 0 1.61-.704 1.61-1.575z"/>
        <path stroke-linecap="round" d="M51.77 51.275h41.793M51.77 58.672h13.67M51.77 66.07h13.67M51.77 73.468h13.67M51.77 43.378h20.572M51.77 35.482h20.572M51.77 27.585h20.572M52.126 19.4h26.979M52.126 11.216h26.979"/>
        <path d="M118.598 24.178L94.73 43.751a1.07 1.07 0 0 1-1.482-.132L79.376 27.4a1.015 1.015 0 0 1 .132-1.452l23.868-19.57c1.43-1.177 3.567-.99 4.764.413l10.88 12.723a3.264 3.264 0 0 1-.422 4.665z"/>
        <path d="M94.165 43.984l-17.53-.2a.348.348 0 0 1-.342-.397l2.848-16.78M77.046 38.424l4.595 5.373M103.766 15.321L83.358 32.057M108.706 21.098L88.298 37.834M99.11 9.874l15.222 17.803M1.652 42.413v-7.634c0-1.753 1.785-3.175 3.986-3.175h6.3l4.12-9.318c.317-.431.9-.7 1.528-.7h2.246"/>
    </g>
</svg>
