<svg xmlns="http://www.w3.org/2000/svg" width="29" height="27" viewBox="0 0 29 27">
    <g fill="none" fill-rule="evenodd" stroke="#474A4F">
        <g stroke-linecap="round" stroke-width=".784">
            <path d="M12.15 13.399h-2.11a1 1 0 0 0-1 1v2.223H4.494v4.389l2.52.814v3.548a1 1 0 0 0 1 1h1.89a1 1 0 0 0 1-1v-2.291l4.02 1.297 4.004-1.292v2.286a1 1 0 0 0 1 1h1.89a1 1 0 0 0 1-1V21.83l2.536-.82v-4.388h-4.544v-2.223a1 1 0 0 0-1-1h-2.176"/>
            <path d="M17.635 17.76V8.741c0-1.645-.362-3.267-1.056-4.737l-1.092-2.314a.52.52 0 0 0-.946-.019l-1.1 2.13a11.071 11.071 0 0 0-1.226 5.083v8.874c0 .132.142.207.24.127l2.206-1.808a.414.414 0 0 1 .528 0l2.206 1.808c.097.08.24.005.24-.127zM26.355 22.425h1.113a1 1 0 0 0 1-1V15.21a1 1 0 0 0-1-1h-1.113a1 1 0 0 0-1 1v6.216a1 1 0 0 0 1 1zM26.912 14.193V9.667M2.382 22.425h1.113a1 1 0 0 0 1-1V15.21a1 1 0 0 0-1-1H2.382a1 1 0 0 0-1 1v6.216a1 1 0 0 0 1 1zM2.938 14.193V9.667M14.925 6.373v6.925"/>
        </g>
        <path d="M12.297 17.852l-5.504 4.333M17.607 17.852l5.117 3.948"/>
        <path stroke-linecap="round" d="M12.586 21.222h4.828"/>
    </g>
</svg>
