<svg xmlns="http://www.w3.org/2000/svg" width="28" height="23" viewBox="0 0 28 23">
    <g fill="none" fill-rule="evenodd" stroke="#474A4F" stroke-linecap="round" stroke-width=".9">
        <path d="M1.734 19.55c-.108.345-.13.723-.047 1.102.24 1.083 1.258 1.749 2.275 1.486 1.015-.261 1.645-1.352 1.405-2.435a2.02 2.02 0 0 0-.557-1.015M16.109 14.751h-3.642c-.704 0-1.274-.615-1.274-1.374 0-.76.57-1.376 1.274-1.376h3.642c.703 0 1.273.615 1.273 1.376 0 .759-.57 1.374-1.273 1.374zM11.236 9.662l2.548-7.734a.2.2 0 0 1 .377-.008l2.915 7.742M14.352 18.114v1.355M12.16 18.114v1.355M16.542 18.114v1.355"/>
        <path d="M19.624 12.345a5.69 5.69 0 0 0-2.1-2.243 6.14 6.14 0 0 0-6.473 0 5.703 5.703 0 0 0-2.1 2.243c-1.611 3.118-1.11 6.163-.895 6.832.214.668 1.11 3.638 6.232 3.638 5.121 0 6.017-2.97 6.232-3.638.214-.669.716-3.714-.896-6.832z"/>
        <path d="M8.129 14.07l-9.743 4.653v1.476l9.424-2.507M26.772 19.55c.108.345.13.723.047 1.102-.24 1.083-1.258 1.749-2.274 1.486-1.016-.261-1.645-1.352-1.405-2.435.09-.406.289-.752.556-1.015M20.377 14.07l9.744 4.653v1.476l-9.424-2.507"/>
    </g>
</svg>
