<svg xmlns="http://www.w3.org/2000/svg" width="28" height="26" viewBox="0 0 28 26">
    <g fill="none" fill-rule="evenodd" stroke="#000" stroke-width=".8">
        <path stroke-linecap="round" d="M.5 1H5.16v19"/>
        <path d="M5.159 5.957h16.886V20"/>
        <path d="M16.451 5.957v4.637a.53.53 0 0 1-.532.526h-4.646a.53.53 0 0 1-.532-.526V5.957M25.01 22.896c0-1.6-1.317-2.896-2.939-2.896-1.624 0-2.939 1.297-2.939 2.896 0 1.6 1.315 2.896 2.939 2.896 1.622 0 2.939-1.297 2.939-2.896zM8.05 22.374h11.13"/>
        <path stroke-linecap="round" d="M25.133 22.374h2.041"/>
        <path d="M8.098 22.896c0-1.6-1.317-2.896-2.94-2.896S2.22 21.297 2.22 22.896c0 1.6 1.315 2.896 2.939 2.896 1.622 0 2.939-1.297 2.939-2.896z"/>
    </g>
</svg>
