<svg xmlns="http://www.w3.org/2000/svg" width="28" height="28" viewBox="0 0 28 28">
    <g fill="none" fill-rule="evenodd" stroke="#474A4F" stroke-linecap="round" stroke-width=".9">
        <path d="M16.003 15.166a2.411 2.411 0 1 0-4.823 0 2.411 2.411 0 0 0 4.823 0z"/>
        <path d="M12.02 13.34l-1.61-9.05a3.224 3.224 0 0 1 1.24-3.144 3.226 3.226 0 0 1 3.875.01l.103.078a3.224 3.224 0 0 1 1.222 3.169l-1.69 8.938M12.824 17.455l-7.017 5.94a3.22 3.22 0 0 1-5.28-2.849l.017-.128a3.225 3.225 0 0 1 2.125-2.65l8.577-3.028M16.014 14.824l8.697 2.977a3.225 3.225 0 0 1 .259 5.997l-.119.053a3.22 3.22 0 0 1-3.363-.466l-6.997-5.813M8.008 8.668a8.546 8.546 0 0 0-2.984 6.498c0 .545.05 1.079.148 1.595M21.985 13.446a8.584 8.584 0 0 0-5.532-6.359M10.735 23.244a8.555 8.555 0 0 0 2.856.489c2.15 0 4.115-.792 5.62-2.1M8.01 25.668a11.842 11.842 0 0 0 5.582 1.389c3.2 0 6.107-1.266 8.245-3.323"/>
        <path d="M7.435 4.99A11.883 11.883 0 0 0 1.7 15.166c0 1 .124 1.972.356 2.9M25.483 15.166c0-5.416-3.621-9.987-8.575-11.423"/>
    </g>
</svg>
