<svg xmlns="http://www.w3.org/2000/svg" width="29" height="26" viewBox="0 0 29 26">
    <g fill="none" fill-rule="evenodd" stroke="#474A4F" stroke-linecap="round" stroke-width=".9">
        <path d="M20.654 12.186c.643-.828 1.17-1.741 1.506-2.743.108-.32.197-.673.274-1.072l.037-.163c.073-.434.11-.873.11-1.308 0-3.253-2.633-5.9-5.87-5.9a5.936 5.936 0 0 0-4.583 2.181.432.432 0 0 1-.674 0C9.799 1.155 6.87.343 4.305 1.598A5.845 5.845 0 0 0 1 6.9c0 .435.037.874.109 1.31.009.054.022.105.036.152 1.119 5.939 9.148 9.18 10.682 9.751a26.51 26.51 0 0 0 3.205-1.456M19.536 23.12l7.045-7.03"/>
        <path d="M13.043 9.544a3.473 3.473 0 0 0-.015 4.897l7.554 7.636 4.89-4.882-7.554-7.635a3.435 3.435 0 0 0-4.875-.016zM23.296 15.062l-1.852 1.91M13.043 9.544L9.892 6.36M21.005 12.68l-1.853 1.85M18.705 10.37l-1.853 1.85M23.027 19.636l2.393 2.419M23.21 24.597l4.817-4.808"/>
    </g>
</svg>
