<svg xmlns="http://www.w3.org/2000/svg" width="19" height="17" viewBox="0 0 19 17">
    <g fill="none" fill-rule="evenodd">
        <path stroke="#FFF" d="M6.333 12.021a1.676 1.676 0 0 1-1.047 0c-1.162.168-2.079.993-2.256 2.038-.013.08.06.15.15.15h5.26c.09 0 .163-.07.15-.15-.178-1.045-1.094-1.87-2.257-2.038z"/>
        <path stroke="#FFF" d="M7.82 10.068a2.013 2.013 0 1 0-2.012 2.012 2.013 2.013 0 0 0 2.012-2.012z"/>
        <path stroke="#FFF" d="M7.456 3.325H1.332c-.633 0-1.146.557-1.146 1.243v11.04c0 .687.513 1.242 1.146 1.242H17.64c.633 0 1.146-.555 1.146-1.242V4.568c0-.686-.513-1.243-1.146-1.243h-6.1"/>
        <path stroke="#FFF" stroke-linecap="round" d="M11 8.549h5M11 11.209h5M11 13.869h5"/>
        <path stroke="#FFF" d="M11.713 5.5V.936c0-.296-.263-.536-.587-.536H7.871c-.324 0-.587.24-.587.536V5.5a.5.5 0 0 0 .5.5h3.43a.5.5 0 0 0 .5-.5z"/>
        <path fill="#FFF" d="M9.98 2.322a.48.48 0 1 0-.48.481.48.48 0 0 0 .48-.481"/>
    </g>
</svg>
