<svg xmlns="http://www.w3.org/2000/svg" width="18" height="16" viewBox="0 0 18 16">
    <g fill="#00999A" fill-rule="evenodd">
        <path d="M10.88 14.024c-.288 0-.523-.25-.523-.557 0-.307.235-.557.524-.557h1.999c1.914 0 3.472-1.655 3.472-3.688 0-1.809-1.225-3.332-2.915-3.624l-.369-.063-.064-.391a4.732 4.732 0 0 0-1.205-2.5A4.224 4.224 0 0 0 8.7 1.288c-1.17 0-2.269.48-3.092 1.356-.86.912-1.306 2.15-1.256 3.486l.021.555-.521.023c-1.573.07-2.804 1.43-2.804 3.092 0 1.715 1.314 3.109 2.928 3.109H6.52c.292 0 .529.25.529.557 0 .307-.233.557-.52.557H3.977C1.784 14.024 0 12.13 0 9.8c0-2.045 1.414-3.81 3.306-4.148.061-1.445.613-2.788 1.56-3.796C5.889.772 7.251.175 8.7.175c1.453 0 2.818.597 3.84 1.682a5.849 5.849 0 0 1 1.424 2.72c2.027.527 3.437 2.425 3.437 4.645 0 2.647-2.028 4.802-4.521 4.802h-2z"/>
        <path d="M8.728 15.163c-.24 0-.437-.209-.437-.465V9.042l-1.405 1.481a.42.42 0 0 1-.618-.002.486.486 0 0 1 .002-.657l2.233-2.353c.06-.064.14-.1.225-.1.087 0 .168.037.229.101l2.215 2.37a.476.476 0 0 1 .128.33c0 .124-.047.24-.129.327a.42.42 0 0 1-.618-.002L9.165 9.054v5.644c0 .256-.196.465-.437.465"/>
    </g>
</svg>
