<svg xmlns="http://www.w3.org/2000/svg" width="19" height="17" viewBox="0 0 19 17">
    <g fill="none" fill-rule="evenodd">
        <path stroke="#70757D" d="M7.579 3.934H2.175c-.558 0-1.011.491-1.011 1.096v9.742c0 .606.453 1.096 1.011 1.096h14.39c.558 0 1.011-.49 1.011-1.096V5.03c0-.605-.453-1.096-1.011-1.096h-5.383"/>
        <path stroke="#70757D" stroke-linecap="round" d="M4 8.882h7.856M4 12.441h11.47"/>
        <path stroke="#70757D" d="M11.335 5.794V1.826c0-.261-.232-.473-.518-.473H7.945c-.286 0-.518.212-.518.473v3.968a.5.5 0 0 0 .5.5h2.908a.5.5 0 0 0 .5-.5z"/>
        <path fill="#70757D" d="M9.806 3.049a.424.424 0 1 0-.424.424c.234 0 .424-.19.424-.424"/>
    </g>
</svg>
