<svg xmlns="http://www.w3.org/2000/svg" width="23" height="20" viewBox="0 0 23 20">
    <g fill="none" fill-rule="evenodd" stroke="#FFF">
        <path d="M11.706 1.346a.382.382 0 0 0-.197.056L1.245 7.624c-.328.198-.326.767.002.964L11.51 14.73a.377.377 0 0 0 .39 0l10.264-6.143c.328-.197.33-.766.002-.964L11.903 1.402a.382.382 0 0 0-.197-.056"/>
        <path d="M5.438 11.114v4.893c0 1.497 1.172 2.711 2.618 2.711h7.3c1.446 0 2.618-1.214 2.618-2.711v-4.893"/>
        <path stroke-linecap="round" d="M15.404 7.353l4.668 2.748v4.393"/>
    </g>
</svg>
