<svg xmlns="http://www.w3.org/2000/svg" width="19" height="15" viewBox="0 0 19 15">
    <g fill="none" fill-rule="evenodd" stroke="#00999A">
        <path d="M5.076 3.653H1.725a.324.324 0 0 0-.325.325v3.35c0 .18.145.325.325.325h3.35c.18 0 .325-.145.325-.324v-3.35a.324.324 0 0 0-.324-.326zM11.371 7.219h-3.35a.324.324 0 0 0-.325.324v3.35c0 .18.144.326.324.326h3.351c.18 0 .325-.146.325-.326v-3.35a.324.324 0 0 0-.325-.324zM17.6 3.653h-3.35a.324.324 0 0 0-.325.325v3.35c0 .18.144.325.324.325H17.6c.18 0 .325-.145.325-.324v-3.35a.324.324 0 0 0-.325-.326zM3.36 0v3.625M3.36 7.553V15M16 8v7M16 0v3.4M9.652 7V0M9.652 11v4"/>
    </g>
</svg>
