<svg xmlns="http://www.w3.org/2000/svg" xmlns:xlink="http://www.w3.org/1999/xlink" width="95" height="93" viewBox="0 0 95 93">
    <defs>
        <path id="a" d="M0 .043h16.21v15.903H0z"/>
    </defs>
    <g fill="none" fill-rule="evenodd">
        <rect width="95" height="93" fill="#E14929" rx="2"/>
        <circle cx="47.5" cy="32.5" r="22.5" fill="#CA4125"/>
        <g transform="translate(35 24.011)">
            <mask id="b" fill="#fff">
                <use xlink:href="#a"/>
            </mask>
            <path fill="#FFF" d="M8.89 9.635h3.958c-.694 1.927-2.576 3.308-4.78 3.293-2.673-.02-4.884-2.118-4.987-4.738C2.969 5.38 5.267 3.06 8.106 3.06c1.298 0 2.483.485 3.376 1.28.212.189.534.19.742-.002l1.454-1.342a.526.526 0 0 0 .001-.776A8.158 8.158 0 0 0 8.267.044C3.798-.04.031 3.554 0 7.938c-.031 4.417 3.61 8.008 8.106 8.008 4.324 0 7.856-3.321 8.093-7.504.006-.053.01-1.825.01-1.825H8.89c-.3 0-.542.238-.542.532v1.953c0 .294.243.533.543.533" mask="url(#b)"/>
        </g>
        <path fill="#FFF" d="M57.917 30.805v-1.907a.471.471 0 0 0-.476-.467h-1.637a.472.472 0 0 0-.476.467v1.907h-1.945a.472.472 0 0 0-.476.467v1.606c0 .258.213.467.476.467h1.945v1.907c0 .258.213.467.476.467h1.637a.471.471 0 0 0 .476-.467v-1.907h1.945a.471.471 0 0 0 .476-.467v-1.606a.472.472 0 0 0-.476-.467h-1.945z"/>
    </g>
</svg>
