<svg xmlns="http://www.w3.org/2000/svg" width="19" height="16" viewBox="0 0 19 16">
    <g fill="none" fill-rule="evenodd" stroke="#00999A">
        <path d="M4.676 4H1.324A.324.324 0 0 0 1 4.325v3.35c0 .18.144.325.324.325h3.352C4.856 8 5 7.855 5 7.676v-3.35A.324.324 0 0 0 4.676 4zM11.676 7H8.324A.324.324 0 0 0 8 7.324v3.35c0 .18.144.326.324.326h3.352c.18 0 .324-.145.324-.325v-3.35A.324.324 0 0 0 11.676 7zM10 0v7M10 11v1.215M17.676 4h-3.352a.324.324 0 0 0-.324.325v3.35c0 .18.144.325.324.325h3.352c.18 0 .324-.145.324-.324v-3.35A.324.324 0 0 0 17.676 4zM3 0v4M3 8v8M16 0v3.5M16 8v8"/>
    </g>
</svg>
