<svg xmlns="http://www.w3.org/2000/svg" xmlns:xlink="http://www.w3.org/1999/xlink" width="110" height="44" viewBox="0 0 110 44">
    <defs>
        <path id="a" d="M0 0h110v44H0z"/>
        <path id="b" d="M0 11h69V0H0z"/>
    </defs>
    <g fill="none" fill-rule="evenodd">
        <g>
            <use fill="#FFF" xlink:href="#a"/>
            <path stroke="#979797" stroke-width=".5" d="M.25.25h109.5v43.5H.25z"/>
        </g>
        <g transform="translate(10 23)">
            <path fill="#FEFEFE" d="M1.167.74C.393 1.232 0 1.957 0 2.897c0 .728.27 1.34.802 1.817.414.366 1.321.815 2.7 1.338.79.3 1.268.53 1.464.7a.783.783 0 0 1 .295.62c0 .649-.66.98-1.953.98-.898 0-1.94-.17-3.093-.5v1.804c1.073.23 2.157.344 3.215.344 1.269 0 2.313-.223 3.106-.665C7.505 8.793 8 7.995 8 6.965c0-.715-.251-1.307-.743-1.757-.422-.383-1.282-.843-2.558-1.366-.91-.377-1.449-.618-1.65-.734-.257-.152-.39-.354-.39-.597 0-.638.622-.96 1.84-.96.824 0 1.723.177 2.673.52V.344C5.89.116 4.892 0 4.21 0 2.964 0 1.94.248 1.167.74"/>
            <mask id="c" fill="#fff">
                <use xlink:href="#b"/>
            </mask>
            <path fill="#FEFEFE" d="M9 11h3V1H9zM15 1v10h8V9.185h-5.057c-.035 0-.066-.025-.066-.057V6.726c0-.033.03-.058.066-.058h4.28V5.114h-4.28c-.035 0-.066-.025-.066-.058V2.773c0-.034.03-.06.066-.06h4.928V1H15zM34.391 1c-.03.072-2.77 6.363-2.77 6.363-.006.021-.032.035-.055.035-.028 0-.05-.015-.059-.035L28.804 1H25v9.897h1.999V3.865c0-.026.023-.052.05-.056.03-.006.059.009.07.036 0 0 3.06 7.086 3.092 7.155h1.784c.033-.07 3.152-7.155 3.152-7.155a.061.061 0 0 1 .07-.036c.028.004.05.03.05.056v7.032H38V1h-3.609zM40 1v10h8V9.185h-5.059c-.035 0-.062-.025-.062-.057V6.726c0-.033.027-.058.062-.058h4.284V5.114H42.94c-.035 0-.062-.025-.062-.058V2.773c0-.034.027-.06.062-.06h4.928V1H40zM57.045 1v6.714c0 .029-.02.05-.046.056a.068.068 0 0 1-.071-.027L53.32 1H50v10h1.958V4.196c0-.029.017-.052.046-.058a.064.064 0 0 1 .068.03L55.778 11H59V1h-1.955zM62.167.74C61.392 1.23 61 1.954 61 2.89c0 .738.27 1.352.803 1.824.415.37 1.324.82 2.699 1.338.794.3 1.278.53 1.474.7.19.168.285.376.285.62 0 .649-.657.98-1.955.98-.906 0-1.948-.17-3.093-.5v1.804c1.075.23 2.156.344 3.219.344 1.267 0 2.313-.223 3.113-.665C68.51 8.793 69 7.995 69 6.965c0-.715-.25-1.307-.744-1.757-.423-.382-1.281-.843-2.55-1.366-.924-.38-1.466-.622-1.658-.734-.255-.152-.387-.354-.387-.597 0-.638.616-.96 1.833-.96.826 0 1.727.177 2.68.52V.344l-.21-.034C66.843.104 65.915 0 65.21 0c-1.247 0-2.27.248-3.043.74" mask="url(#c)"/>
            <path fill="#00A9AC" d="M.212 9.649V7.746c1.17.34 2.204.51 3.104.51 1.244 0 1.868-.303 1.868-.91a.72.72 0 0 0-.273-.573c-.185-.162-.66-.39-1.424-.68C2.117 5.57 1.225 5.125.81 4.757.27 4.272 0 3.661 0 2.922c0-.955.392-1.68 1.176-2.179C1.951.247 2.962 0 4.209 0c.685 0 1.677.118 2.979.351v1.83c-.968-.356-1.865-.533-2.696-.533-1.166 0-1.751.296-1.751.89 0 .221.12.403.354.544.196.114.736.354 1.618.723 1.27.52 2.116.975 2.536 1.363.502.457.751 1.05.751 1.775 0 1.044-.49 1.84-1.47 2.39-.794.446-1.826.667-3.09.667a15.19 15.19 0 0 1-3.228-.351M9 10h3V0H9zM15 10V0h7.874v1.809h-4.917v2.258h4.28v1.65h-4.28V8.09H23V10zM25 9.902V0h3.873l2.691 6.327L34.322 0H38v9.902h-2.832v-7.01L32.033 10h-1.852l-3.076-7.108v7.01zM40 10V0h7.873v1.809h-4.915v2.258h4.279v1.65h-4.279V8.09H48V10zM50 10V0h3.372l3.579 6.694V0H59v10h-3.278l-3.67-6.783V10zM61.212 9.649V7.746c1.16.34 2.195.51 3.104.51 1.244 0 1.868-.303 1.868-.91 0-.229-.091-.419-.265-.573-.187-.162-.663-.39-1.43-.68-1.367-.519-2.261-.963-2.68-1.335C61.27 4.276 61 3.662 61 2.913c0-.946.392-1.672 1.176-2.17C62.951.247 63.964 0 65.209 0c.7 0 1.607.103 2.722.31l.257.041v1.83c-.968-.356-1.868-.533-2.7-.533-1.165 0-1.744.296-1.744.89 0 .221.116.403.351.544.187.109.73.35 1.626.723 1.26.52 2.105.975 2.528 1.363.503.457.751 1.05.751 1.775 0 1.044-.488 1.84-1.465 2.39-.796.446-1.831.667-3.095.667a15.18 15.18 0 0 1-3.228-.351" mask="url(#c)"/>
        </g>
        <text fill="#70757D" font-family="SiemensSans-Bold, Siemens Sans" font-size="7" font-weight="bold" letter-spacing="-.047" transform="translate(10 10)">
            <tspan x="0" y="5">Powered by</tspan>
        </text>
        <text fill="#70757D" font-family="SiemensSans-Bold, Siemens Sans" font-size="7" font-weight="bold" letter-spacing="-.047" transform="translate(10 10)">
            <tspan x="74" y="21">PLM</tspan>
        </text>
    </g>
</svg>
