<svg xmlns="http://www.w3.org/2000/svg" width="30" height="26" viewBox="0 0 30 26">
    <g fill="none" fill-rule="evenodd" stroke="#474A4F" stroke-width=".9">
        <path d="M24.345 24.711H5.215c-2.208 0-3.997-1.76-3.997-3.933 0-2.172 1.79-3.933 3.996-3.933h19.131c2.207 0 3.997 1.76 3.997 3.933 0 2.172-1.79 3.933-3.997 3.933zM23.669 2.17L18.45 7.587M21.125 11.762l5.91-7.453M27.39 3.187c0-1.09-.897-1.973-2.004-1.973s-2.005.883-2.005 1.973.898 1.973 2.005 1.973c1.107 0 2.005-.883 2.005-1.973zM19.065 8.416h-8.876c-.497 0-.9.343-.9.768v3.915c0 .405.385.733.86.733h12.225"/>
        <path d="M17.795 6.691a1.716 1.716 0 0 0-1.529-.926H7.004c-.832 0-1.506.664-1.506 1.483v4.69a.316.316 0 0 1-.318.313h-.684c-.562 0-1.017.46-1.017 1.029v2.535c0 .569.455 1.03 1.017 1.03h19.968L17.794 6.69z"/>
        <path stroke-linecap="round" d="M28.652 12.226c0 1.002-.94 1.787-1.999 1.55a1.592 1.592 0 0 1-1.192-1.175 1.597 1.597 0 0 1 1.4-1.957c.097-.01.173-.084.173-.18V4.31"/>
        <path d="M14.548 8.556v5.333"/>
    </g>
</svg>
