<svg xmlns="http://www.w3.org/2000/svg" width="21" height="18" viewBox="0 0 21 18">
    <g fill="none" fill-rule="evenodd" stroke="#70757D">
        <path d="M11.886 10.887h7.502c.18 0 .327-.148.327-.33V6.31c0-1.085-.869-1.964-1.94-1.964H3.322c-1.072 0-1.94.88-1.94 1.964v4.246c0 .183.146.331.326.331H9.2M11.969 11h7.309v4.078c0 1.023-.958 1.851-2.14 1.851H3.96c-1.182 0-2.14-.828-2.14-1.85V11h7.297M13.244 1.126H7.853c-.59 0-1.068.55-1.068 1.23v1.99h7.526v-1.99c0-.68-.477-1.23-1.067-1.23z"/>
        <path d="M11.454 8.636H9.643c-.257 0-.466.22-.466.494v3.789c0 .273.209.494.466.494h1.81c.258 0 .466-.221.466-.494v-3.79c0-.272-.208-.493-.465-.493z"/>
    </g>
</svg>
