<svg xmlns="http://www.w3.org/2000/svg" width="28" height="23" viewBox="0 0 28 23">
    <g fill="none" fill-rule="evenodd" stroke="#474A4F" stroke-linecap="round" stroke-width=".9">
        <path d="M23.486 21.979H4.361c-2.12 0-3.838-1.743-3.838-3.896V16.62c0-2.15 1.719-3.896 3.838-3.896h19.125c2.12 0 3.838 1.745 3.838 3.896v1.463c0 2.153-1.718 3.896-3.838 3.896zM16.427 1.616H7.218c-1.365 0-2.474 1.125-2.474 2.512V8.45h15.664l-2.602-5.972a1.542 1.542 0 0 0-1.379-.862zM23.698 1.148L19.302 5.21M20.802 8.45l5.164-5.816M26.206 1.855c0-.757-.605-1.371-1.35-1.371-.746 0-1.352.614-1.352 1.37 0 .757.606 1.372 1.351 1.372.746 0 1.351-.615 1.351-1.371z"/>
        <path d="M7.115 17.352c0-1.15-.918-2.081-2.05-2.081-1.131 0-2.05.93-2.05 2.081 0 1.15.919 2.08 2.05 2.08 1.132 0 2.05-.93 2.05-2.08zM13.02 17.352c0-1.15-.917-2.081-2.05-2.081-1.131 0-2.049.93-2.049 2.081 0 1.15.918 2.08 2.05 2.08 1.132 0 2.05-.93 2.05-2.08zM18.926 17.352c0-1.15-.917-2.081-2.05-2.081-1.132 0-2.05.93-2.05 2.081 0 1.15.918 2.08 2.05 2.08 1.133 0 2.05-.93 2.05-2.08zM24.832 17.352c0-1.15-.919-2.081-2.05-2.081-1.132 0-2.05.93-2.05 2.081 0 1.15.918 2.08 2.05 2.08 1.131 0 2.05-.93 2.05-2.08zM8.559 8.45V4.934c0-.456.363-.825.812-.825h9.027M12.22 8.45V4.109M4.744 8.45L3.72 12.724h20.004L20.408 8.45H4.744"/>
    </g>
</svg>
