<svg xmlns="http://www.w3.org/2000/svg" width="95" height="93" viewBox="0 0 95 93">
    <g fill="none" fill-rule="evenodd">
        <rect width="95" height="93" fill="#1776B5" rx="2"/>
        <circle cx="47.5" cy="32.5" r="22.5" fill="#166BA3"/>
        <g fill="#FFF">
            <path d="M38.233 40.962h4.052V28.865h-4.052zM55.581 29.97c-.85-.923-1.977-1.385-3.376-1.385-.516 0-.984.063-1.406.19a3.197 3.197 0 0 0-1.068.53c-.29.228-.522.44-.694.635a5.24 5.24 0 0 0-.479.646v-1.72H44.52l.012.585c.009.391.013 1.595.013 3.614 0 2.018-.008 4.65-.025 7.897h4.04v-6.75c0-.415.044-.745.134-.989.172-.415.432-.763.78-1.043.348-.281.78-.422 1.296-.422.703 0 1.221.242 1.553.726.331.485.497 1.154.497 2.009v6.47h4.04v-6.934c-.001-1.782-.427-3.135-1.278-4.059M40.284 23.043c-.68 0-1.23.197-1.652.592-.421.395-.632.893-.632 1.495 0 .594.205 1.09.614 1.49.409.398.95.597 1.62.597h.025c.688 0 1.242-.199 1.664-.598.421-.398.628-.895.62-1.489-.009-.602-.217-1.1-.627-1.495-.409-.395-.953-.592-1.632-.592"/>
        </g>
    </g>
</svg>
