<svg xmlns="http://www.w3.org/2000/svg" xmlns:xlink="http://www.w3.org/1999/xlink" width="92" height="47" viewBox="0 0 92 47">
    <defs>
        <path id="a" d="M.251 5.462h34.725V.147H.251z"/>
    </defs>
    <g fill="none" fill-rule="evenodd">
        <path fill="#7A99A9" d="M0 46h45V1H0z"/>
        <g fill="#FEFEFE">
            <path d="M5.082 10.778c.365.129.665.18 1.03.18.77 0 1.22-.392 1.22-1.07 0-.304-.1-.548-.285-.713-.145-.124-.31-.212-.725-.387-.5-.213-.625-.327-.625-.564 0-.275.214-.45.55-.45.245 0 .485.057.825.206l.12-.532c-.39-.129-.665-.18-.97-.18-.715 0-1.155.402-1.155 1.049 0 .279.095.496.285.657.14.114.26.176.67.356.575.254.67.341.67.605 0 .321-.23.518-.6.518-.275 0-.515-.057-.93-.223l-.08.548zm4.04-2.57c-.77 0-1.25.522-1.25 1.36 0 .87.47 1.39 1.25 1.39.775 0 1.25-.52 1.25-1.374 0-.854-.475-1.375-1.25-1.375zm0 .46c.4 0 .645.346.645.916 0 .569-.245.915-.645.915-.405 0-.645-.346-.645-.925 0-.56.244-.906.645-.906zm1.96 2.234h.585v-3.78h-.585v3.78zm3.695-2.636h-.585v1.783c-.2.284-.435.445-.66.445-.17 0-.295-.083-.35-.228-.04-.098-.05-.202-.05-.444V8.266h-.585v1.587c0 .377.03.574.11.734.12.243.364.371.684.371.346 0 .59-.118.89-.443l.016.387h.554c-.02-.352-.024-.563-.024-.925V8.266zm1.04.459v1.257c0 .367.035.564.125.703.115.18.32.273.61.273.174 0 .334-.025.52-.087l-.056-.46a.71.71 0 0 1-.275.062c-.255 0-.34-.134-.34-.522V8.725h.58v-.46h-.58v-.687l-.584.113v.575h-.41v.459h.41zm1.8 2.177h.584V8.266h-.584v2.636zm.294-3.862a.357.357 0 0 0-.364.372c0 .222.15.377.364.377.21 0 .36-.155.36-.377 0-.217-.15-.372-.36-.372zm2.246 1.169c-.77 0-1.25.521-1.25 1.359 0 .87.47 1.39 1.25 1.39.775 0 1.249-.52 1.249-1.374 0-.854-.474-1.375-1.25-1.375zm0 .46c.4 0 .645.345.645.915 0 .569-.245.915-.645.915-.406 0-.646-.346-.646-.925 0-.56.246-.906.646-.906zm1.965 2.233h.584V9.118c.21-.29.44-.445.67-.445.18 0 .31.083.366.228.035.098.05.212.05.444v1.557h.584V9.314c0-.377-.03-.579-.11-.734-.125-.243-.375-.371-.695-.371-.36 0-.59.113-.905.443l-.015-.386h-.554c.02.417.025.568.025.925v1.71zM5.067 17.666h.605V16.24h.28c.455 0 .72-.056.935-.212.26-.186.405-.485.405-.863 0-.373-.14-.677-.39-.863-.215-.156-.47-.212-1-.212h-.835v3.577zm.595-1.918V14.58h.224c.296 0 .44.032.566.115.14.093.22.268.22.486 0 .227-.09.403-.24.48-.125.067-.275.088-.576.088h-.194zm3.625 1.918h.555a7.982 7.982 0 0 1-.026-.671v-.787c0-.501-.044-.703-.19-.89-.17-.226-.48-.345-.88-.345-.334 0-.614.072-.924.232l.155.434c.26-.155.47-.222.69-.222.37 0 .565.211.565.6v.052c-.23-.01-.315-.015-.415-.015-.35 0-.585.04-.755.134-.26.144-.405.408-.405.74 0 .495.305.795.82.795.335 0 .545-.098.79-.356l.02.3zm-.055-.724c-.165.248-.35.368-.576.368-.24 0-.394-.156-.394-.399 0-.325.224-.475.705-.475.09 0 .15 0 .265.01v.496zm1.495.724h.58v-1.53c.11-.388.34-.606.63-.606.07 0 .11.006.2.021l.035-.531a.723.723 0 0 0-.226-.031c-.3 0-.524.175-.674.537l-.016-.496h-.55c.016.475.02.806.02.992v1.644zm2.24-2.177v1.258c0 .366.035.563.125.702.114.181.32.274.609.274.175 0 .335-.026.52-.088l-.055-.46a.728.728 0 0 1-.275.062c-.255 0-.34-.134-.34-.521v-1.227h.58v-.459h-.58v-.688l-.584.114v.574h-.41v.459h.41zm1.81 2.177h.584v-1.783c.21-.29.44-.445.67-.445.18 0 .31.083.366.227.035.098.05.212.05.445v1.556h.584V16.08c0-.378-.03-.58-.11-.734-.125-.243-.375-.372-.695-.372-.36 0-.59.114-.905.444l-.015-.387h-.554c.02.418.025.567.025.925v1.711zm5.34-1.127c-.005-.454-.035-.678-.125-.92-.156-.42-.52-.646-1.05-.646-.756 0-1.22.522-1.22 1.38 0 .88.48 1.37 1.334 1.37.37 0 .676-.082.98-.264l-.204-.444c-.26.17-.506.253-.76.253-.456 0-.69-.232-.736-.729h1.78zm-1.78-.423c.02-.435.25-.699.605-.699.354 0 .564.253.574.699h-1.18zm2.48 1.55h.58v-1.53c.11-.388.34-.606.63-.606.07 0 .11.006.2.021l.034-.531a.716.716 0 0 0-.225-.031c-.3 0-.525.175-.675.537l-.015-.496h-.55c.016.475.02.806.02.992v1.644zM5.067 41.655h.4v-1.509h.22c.42 0 .68-.047.9-.166.29-.154.455-.47.455-.858 0-.377-.146-.688-.4-.853-.205-.14-.465-.19-.906-.19h-.67v3.576zm.4-1.85v-1.386h.225c.345 0 .545.041.68.139.15.109.245.32.245.564 0 .269-.105.48-.28.573-.14.078-.365.11-.705.11h-.166zm2.22 1.85h1.9v-.34h-1.5v-3.237h-.4v3.577zm2.445 0h.38v-2.979c.16.509.194.626.31.937l.764 2.042h.466l.745-2.069c.12-.335.14-.393.295-.91v2.979h.4v-3.577h-.535l-.955 2.703c-.07.207-.11.32-.165.502a11.46 11.46 0 0 0-.17-.496l-.98-2.709h-.555v3.577z"/>
        </g>
        <path fill="#FEFEFE" d="M47 46h44V1H47z"/>
        <g transform="translate(52 21)">
            <path fill="#FEFEFE" d="M.876.56C.489.811.293 1.182.293 1.662c0 .372.135.685.4.928.208.187.66.417 1.35.684.394.153.634.27.732.357a.404.404 0 0 1 .147.317c0 .331-.33.5-.976.5-.449 0-.97-.086-1.546-.255v.922a7.56 7.56 0 0 0 1.607.175c.634 0 1.156-.114 1.552-.34.484-.276.732-.683.732-1.21a1.18 1.18 0 0 0-.372-.898c-.21-.195-.64-.43-1.278-.697-.455-.193-.724-.316-.825-.375-.128-.078-.194-.18-.194-.305 0-.326.31-.49.92-.49.41 0 .86.09 1.335.265V.358C3.236.241 2.737.182 2.397.182 1.774.182 1.262.31.876.56"/>
            <mask id="b" fill="#fff">
                <use xlink:href="#a"/>
            </mask>
            <path fill="#FEFEFE" d="M5.184 5.19h1.413V.268H5.184zM8.012.269v4.92h3.784v-.893H9.404c-.017 0-.031-.012-.031-.028V3.086c0-.016.014-.028.03-.028h2.025v-.765H9.404c-.017 0-.031-.012-.031-.029V1.141c0-.017.014-.03.03-.03h2.331V.27H8.012zM17.413.269l-1.355 3.163c-.003.01-.016.017-.027.017-.014 0-.025-.007-.029-.017L14.68.27h-1.86v4.92h.977V1.693c0-.013.011-.026.025-.028a.03.03 0 0 1 .034.018s1.496 3.523 1.512 3.557h.873c.016-.034 1.542-3.557 1.542-3.557a.03.03 0 0 1 .034-.018c.013.002.024.015.024.028v3.496h1.337V.27h-1.765zM20.592.269v4.92h3.784v-.893h-2.393c-.016 0-.029-.012-.029-.028V3.086c0-.016.013-.028.03-.028h2.025v-.765h-2.026c-.016 0-.029-.012-.029-.029V1.141c0-.017.013-.03.03-.03h2.33V.27h-3.722zM28.931.269v3.303c0 .015-.01.025-.023.028a.034.034 0 0 1-.036-.013L27.068.269h-1.66v4.92h.979V1.841c0-.014.008-.025.023-.028a.032.032 0 0 1 .034.014l1.853 3.362h1.612V.27h-.978zM31.494.56c-.388.25-.583.62-.583 1.098 0 .377.135.69.4.932.208.19.663.419 1.349.684.397.153.639.27.737.357a.412.412 0 0 1 .142.317c0 .331-.329.5-.977.5-.452 0-.973-.086-1.545-.255v.922a7.56 7.56 0 0 0 1.608.175c.633 0 1.156-.114 1.555-.34.482-.276.727-.683.727-1.21 0-.365-.125-.667-.371-.898-.212-.195-.64-.43-1.275-.697-.461-.194-.731-.318-.828-.375-.127-.078-.193-.18-.193-.305 0-.326.308-.49.916-.49.412 0 .863.09 1.338.265V.358a33.51 33.51 0 0 1-.105-.017C33.83.235 33.366.182 33.014.182c-.623 0-1.134.127-1.52.378" mask="url(#b)"/>
            <path fill="#00A9AC" d="M.37 5.138v-.983c.593.176 1.118.264 1.574.264.631 0 .948-.157.948-.47a.375.375 0 0 0-.139-.297c-.093-.084-.335-.201-.722-.351-.695-.27-1.148-.5-1.359-.69a1.232 1.232 0 0 1-.41-.948c0-.494.199-.869.597-1.126.393-.257.906-.384 1.538-.384.348 0 .851.06 1.511.181v.946c-.49-.184-.945-.276-1.367-.276-.592 0-.889.153-.889.46 0 .115.06.208.18.281.1.06.373.183.821.374.644.269 1.073.504 1.286.704.255.236.381.542.381.917 0 .54-.249.951-.746 1.235-.402.23-.926.345-1.567.345-.541 0-1.088-.06-1.638-.182M5.154 5.218h1.475V.24H5.154zM7.982 5.219V.239h3.783v.901H9.403v1.124h2.056v.822H9.403v1.182h2.423v.95zM12.79 5.219V.239H14.7l1.33 3.182L17.392.239h1.816v4.98H17.81V1.694l-1.548 3.574h-.915L13.83 1.694v3.525zM20.562 5.219V.239h3.783v.901h-2.362v1.124h2.057v.822h-2.057v1.182h2.423v.95zM25.377 5.219V.239h1.709L28.9 3.572V.24h1.04v4.98h-1.662L26.417 1.84V5.22zM30.987 5.138v-.983c.588.176 1.113.264 1.575.264.63 0 .947-.157.947-.47a.384.384 0 0 0-.134-.297c-.095-.084-.337-.201-.726-.351-.694-.268-1.147-.498-1.36-.69a1.23 1.23 0 0 1-.41-.953c0-.489.2-.864.597-1.121.393-.257.907-.384 1.538-.384.356 0 .816.053 1.381.16l.13.021v.946c-.49-.184-.947-.276-1.37-.276-.59 0-.884.153-.884.46 0 .115.06.208.178.281.095.056.37.18.825.374.64.269 1.068.504 1.283.704.255.236.38.542.38.917 0 .54-.247.951-.742 1.235-.404.23-.93.345-1.57.345-.543 0-1.089-.06-1.638-.182" mask="url(#b)"/>
        </g>
        <path stroke="#808184" stroke-width=".55" d="M47 46h44V1H47z"/>
    </g>
</svg>
