<svg xmlns="http://www.w3.org/2000/svg" width="29" height="26" viewBox="0 0 29 26">
    <g fill="none" fill-rule="evenodd" stroke="#474A4F" stroke-linecap="round" stroke-width=".9">
        <path d="M.504 2.53h7.269M4.368 20.546a2.404 2.404 0 0 1-2.392-2.415v-15.6H6.76v15.6a2.403 2.403 0 0 1-2.392 2.415zM20.66 2.53h7.268M24.524 20.546a2.404 2.404 0 0 1-2.393-2.415v-15.6h4.785v15.6a2.403 2.403 0 0 1-2.392 2.415zM11.995 9.81H6.76M22.132 9.81h-4.987M17.156 9.937c0-1.428-1.147-2.584-2.561-2.584-1.415 0-2.56 1.156-2.56 2.584 0 1.428 1.145 2.584 2.56 2.584 1.414 0 2.561-1.156 2.561-2.584zM14.595.508v6.9M14.595 12.521v9.308M17.263 21.83h-5.58c-1.877 0-3.398 1.535-3.398 3.428H20.66c0-1.893-1.52-3.428-3.396-3.428zM1.976 6.947h1.92M1.976 9.937h1.92M1.976 12.928h1.92M1.976 15.917h1.92M22.373 6.947h1.921M22.373 9.937h1.921M22.373 12.928h1.921M22.373 15.917h1.921"/>
    </g>
</svg>
