<svg xmlns="http://www.w3.org/2000/svg" width="28" height="27" viewBox="0 0 28 27">
    <g fill="none" fill-rule="evenodd" stroke="#474A4F" stroke-linecap="round" stroke-width=".9">
        <path d="M20.57 3.517H7.66a.477.477 0 0 1-.477-.478V1.106c0-.262.214-.476.477-.476h12.91c.263 0 .476.214.476.476v1.933a.476.476 0 0 1-.476.478zM9.681 6.463V3.517M18.34 6.463V3.517M18.766 6.463h-9.39a.657.657 0 0 0-.657.657v5.06c0 .363.294.657.657.657h9.39a.657.657 0 0 0 .656-.656V7.12a.657.657 0 0 0-.656-.657zM18.34 12.837H9.681v1.844a.8.8 0 0 0 .801.802h7.058a.8.8 0 0 0 .8-.802v-1.844z"/>
        <path d="M10.61 15.482l2.933 5.654c.197.379.739.379.935 0l2.933-5.654M14.01 23.103v2.037M3.63 25.34h7.855M16.717 25.34h7.853"/>
    </g>
</svg>
