<svg xmlns="http://www.w3.org/2000/svg" width="28" height="26" viewBox="0 0 28 26">
    <g fill="none" fill-rule="evenodd" stroke="#474A4F" stroke-linecap="round" stroke-width=".9">
        <path d="M25.345 13.14c0-6.312-5.115-11.428-11.426-11.428-6.31 0-11.426 5.116-11.426 11.427S7.608 24.565 13.92 24.565 25.345 19.45 25.345 13.14z"/>
        <path d="M22.231 13.14a8.31 8.31 0 0 0-8.312-8.312 8.312 8.312 0 1 0 8.312 8.312z"/>
        <path d="M22.12 11.777c-2.138-1.941-5.024-3.131-8.2-3.131-3.178 0-6.065 1.19-8.203 3.133M1.532 19.857a14.172 14.172 0 0 0 5.084 5.335M26.205 6.228a14.153 14.153 0 0 0-5.071-5.196M11.213 20.999c1.489-2.841 1.516-5.725-.053-6.754-1.302-.853-3.334-.192-5.14 1.484M16.65 20.99c-1.483-2.838-1.508-5.717.059-6.745 1.296-.85 3.318-.197 5.12 1.464"/>
        <path d="M15.426 11.983a1.507 1.507 0 1 0-3.014 0 1.507 1.507 0 0 0 3.014 0z"/>
    </g>
</svg>
