<svg xmlns="http://www.w3.org/2000/svg" width="28" height="28" viewBox="0 0 28 28">
    <g fill="none" fill-rule="evenodd" stroke="#474A4F" stroke-linecap="round" stroke-width=".9">
        <path d="M20.934 10.065H7.057c-2.55 0-4.615 2.372-4.615 5.302v.79H25.55v-.79c0-2.93-2.066-5.302-4.616-5.302z"/>
        <path d="M4.565 10.59V8.61c0-3.885 2.742-7.035 6.123-7.035h6.492c3.382 0 6.123 3.15 6.123 7.036v1.98"/>
        <path d="M20.928 9.328V6.972c0-1.118-.788-2.024-1.762-2.024H8.8c-.973 0-1.762.906-1.762 2.024v2.356M8.414 13.358a.999.999 0 1 0-1 1c.553 0 1-.446 1-1zM21.81 13.358a1 1 0 1 0-2 0 1 1 0 0 0 2 0zM15.932 19.97v-3.812M11.997 19.97v-3.812M13.934 4.948l-3.063 3.52M18.243 4.948l-1.977 2.27M2.441 16.157v3.312c0 .277.196.501.438.501h.836c.38-.788 1.102-1.328 1.942-1.328.84 0 1.562.54 1.941 1.328h12.794c.38-.788 1.103-1.328 1.942-1.328.84 0 1.562.54 1.942 1.328h.837c.24 0 .436-.224.436-.501v-3.312H2.441zM13.95 26v-6M1.125 25.975H26.95"/>
    </g>
</svg>
