<svg xmlns="http://www.w3.org/2000/svg" width="28" height="22" viewBox="0 0 28 22">
    <g fill="none" fill-rule="evenodd" stroke="#474A4F" stroke-linecap="round" stroke-width=".9">
        <path d="M11.244 19.708c-.455 0-.61-1.076-.796-2.72-.335-2.979-.715-4.491-1.851-4.491-1.11 0-1.474 1.437-1.831 4.456-.169 1.42-.327 2.755-.819 2.755-1.41 0-2.099-3.191-2.763-6.278 0 0-.227-1.044-.311-1.412-.158-.706-.46-1.212-.778-1.746C1.557 9.368 1 8.434 1 6.41 1 3.978 3.028 2 5.523 2c.95 0 1.862.286 2.635.831l.439.309.438-.309A4.54 4.54 0 0 1 11.668 2c2.495 0 4.523 1.978 4.523 4.409 0 2.027-.555 2.96-1.093 3.865-.322.54-.622 1.045-.781 1.746-.104.465-.207.938-.31 1.41-.665 3.087-1.35 6.278-2.763 6.278z"/>
        <path d="M8.595 3.042l-1.072 2.24a.253.253 0 0 1-.201.137l-1.45.152c-.212.023-.374.175-.39.362L5.34 7.208"/>
        <path d="M11.85 7.074l-2.54.134a.145.145 0 0 1-.122-.05L7.51 5.125M8.985 7.208l-.39 2.084M25.974 19.471a2.006 2.006 0 0 1-1.42.56 2.005 2.005 0 0 1-1.581-.786 1.11 1.11 0 0 1-.165.192 2.004 2.004 0 0 1-1.418.564c-1.105-.012-1.995-.9-1.985-1.977.004-.522.217-1.01.598-1.375a2.013 2.013 0 0 1 1.644-.544l.074-9.37a.927.927 0 0 1-.223.018 2.011 2.011 0 0 1-1.404-.586 1.919 1.919 0 0 1-.571-1.387c.002-.523.216-1.011.596-1.378a2.009 2.009 0 0 1 1.42-.559c.626.007 1.201.29 1.58.784a1.32 1.32 0 0 1 .17-.197 2.034 2.034 0 0 1 2.825.03c.374.372.578.866.573 1.387a1.91 1.91 0 0 1-.597 1.378 2.013 2.013 0 0 1-1.642.544l-.076 9.368c.068-.014.143-.019.22-.018a2.02 2.02 0 0 1 1.406.587c.375.373.578.866.573 1.389a1.918 1.918 0 0 1-.597 1.376z"/>
    </g>
</svg>
