<svg xmlns="http://www.w3.org/2000/svg" width="14" height="18" viewBox="0 0 14 18">
    <g fill="none" fill-rule="evenodd">
        <path stroke="#7A99A9" stroke-width=".944" d="M12.92 15.684c0 .672-.56 1.234-1.233 1.234h-9.87a1.245 1.245 0 0 1-1.233-1.234V7.216c0-.673.56-1.233 1.233-1.233h9.87c.673 0 1.233.56 1.233 1.233v8.468z"/>
        <path stroke="#7A99A9" stroke-linecap="round" stroke-width=".944" d="M9.164 5.983V2.995a2.413 2.413 0 0 0-4.825 0v.652"/>
        <path fill="#7A99A9" d="M8.1 11.45a1.348 1.348 0 1 0-2.695 0 1.348 1.348 0 0 0 2.695 0"/>
    </g>
</svg>
