<svg xmlns="http://www.w3.org/2000/svg" width="16" height="19" viewBox="0 0 16 19">
    <g fill="none" fill-rule="evenodd" stroke="#FFF">
        <path d="M8.384 0h-.695c-.523 0-.946.295-.946.658v5.185H9.33V.658C9.33.295 8.907 0 8.384 0z"/>
        <path d="M2.43 5.842h11.536c.555 0 1.004.53 1.004 1.185 0 .653-.45 1.183-1.004 1.183H2.43c-.555 0-1.004-.53-1.004-1.183 0-.655.45-1.185 1.004-1.185zM2.547 5.761h4.23V.864c-2.43.56-4.23 2.537-4.23 4.897zM9.414.864v4.902h4.23c0-2.367-1.8-4.348-4.23-4.902zM2.993 8.21c.39 2.73 2.565 4.82 5.196 4.82 2.632 0 4.806-2.09 5.196-4.82"/>
        <path d="M9.576 12.98a4.444 4.444 0 0 1-1.387.224c-.485 0-.95-.081-1.387-.224-3.082.444-5.51 2.632-5.98 5.401-.036.21.156.398.394.398h13.946c.238 0 .43-.187.395-.398-.47-2.769-2.899-4.957-5.981-5.401z"/>
    </g>
</svg>
