<svg xmlns="http://www.w3.org/2000/svg" width="28" height="24" viewBox="0 0 28 24">
    <g fill="none" fill-rule="evenodd" stroke="#474A4F" stroke-linecap="round" stroke-width=".9">
        <path d="M17.241 5.06H1.454a.6.6 0 0 1-.599-.599V1.355c0-.332.268-.599.6-.599H17.24c.331 0 .6.267.6.6V4.46a.6.6 0 0 1-.6.6zM14.763 21.59H3.933c-.99 0-1.792-.802-1.792-1.791V5.06h14.413v14.738c0 .99-.801 1.79-1.791 1.79zM16.554 12.515h-2.556M4.698 12.515H2.142"/>
        <path d="M13.432 8.836H5.265a.566.566 0 0 0-.567.566V16.1c0 .314.253.567.567.567h8.167a.565.565 0 0 0 .565-.567V9.402a.566.566 0 0 0-.565-.566zM9.348 11.594v2.481M8.108 12.835h2.48M4.22 5.06V3.236M7.687 5.06V3.236M11.155 5.06V3.236M14.622 5.06V3.236"/>
        <g>
            <path d="M26.39 3.41a2.94 2.94 0 1 0-4.42 3.875 2.94 2.94 0 0 0 4.42-3.875zM24.537 2.905l-.535 4.907"/>
        </g>
        <g>
            <path d="M22.69 21.358c-1.318.003-2.388-1.16-2.39-2.6l-.006-2.392-.004-1.754c-.003-1.44 1.061-2.608 2.378-2.611 1.318-.003 2.388 1.16 2.391 2.599l.005 1.58.004 2.567c.004 1.438-1.061 2.608-2.378 2.611zM24.836 16.156l-3.966.101"/>
        </g>
    </g>
</svg>
