<svg xmlns="http://www.w3.org/2000/svg" width="28" height="27" viewBox="0 0 28 27">
    <g fill="none" fill-rule="evenodd" stroke="#000" stroke-width=".9">
        <path d="M18.518.285H8.96c-3.13 0-5.666 2.454-5.666 5.48V19.77c0 1.563 1.31 2.83 2.926 2.83h15.037c1.615 0 2.925-1.267 2.925-2.83V5.765c0-3.026-2.536-5.48-5.665-5.48z"/>
        <path d="M21.39 18.33c0-.848-.71-1.535-1.587-1.535s-1.587.687-1.587 1.535c0 .847.71 1.535 1.587 1.535s1.587-.688 1.587-1.535zM9.032 18.33c0-.848-.71-1.535-1.587-1.535s-1.587.687-1.587 1.535c0 .847.71 1.535 1.587 1.535s1.587-.688 1.587-1.535zM3.295 6.288h20.888M24.183 14.005H3.296M16.333 2.147h-5.187c-.605 0-1.096.475-1.096 1.06 0 .586.491 1.06 1.096 1.06h5.187c.605 0 1.095-.474 1.095-1.06 0-.585-.49-1.06-1.095-1.06z"/>
        <path stroke-linecap="round" d="M7.445 22.6l-2.618 4.351M19.803 22.6l2.618 4.351"/>
        <path d="M21.356 25.16H5.961"/>
    </g>
</svg>
