<svg xmlns="http://www.w3.org/2000/svg" width="20" height="20" viewBox="0 0 20 20">
    <g fill="none" fill-rule="evenodd" stroke="#70757D">
        <path d="M14.63 10.357a4.17 4.17 0 0 0-4.187 4.188 4.17 4.17 0 0 0 4.187 4.188 4.17 4.17 0 0 0 4.188-4.188c0-2.327-1.907-4.188-4.188-4.188z"/>
        <path stroke-linecap="round" d="M17.568 9.38V3.138a.474.474 0 0 0-.474-.473h-15.3a.473.473 0 0 0-.472.474v14.05c0 .26.211.472.472.472H9.5M5.12 1.321v3.324M13.77 1.321v3.324M1.322 6.694h16.245M14.63 12.501v4.094M12.584 14.548h4.093"/>
    </g>
</svg>
