<svg xmlns="http://www.w3.org/2000/svg" width="41" height="33" viewBox="0 0 41 33">
    <g fill="#828282" fill-rule="nonzero">
        <path d="M40.293 0H.707A.714.714 0 0 0 0 .717v31.566c0 .394.318.717.707.717h39.586a.714.714 0 0 0 .707-.717V.717A.714.714 0 0 0 40.293 0zm-.707 31.565H1.414V1.435h38.172v30.13z"/>
        <path d="M11 16c2.205 0 4-1.795 4-4s-1.795-4-4-4-4 1.795-4 4 1.795 4 4 4zm0-6.564A2.565 2.565 0 0 1 13.564 12 2.565 2.565 0 0 1 11 14.564 2.565 2.565 0 0 1 8.436 12 2.565 2.565 0 0 1 11 9.436zM5.702 29a.7.7 0 0 0 .464-.174l11.456-9.994 7.234 7.169a.704.704 0 0 0 .99 0 .689.689 0 0 0 0-.982l-3.378-3.347 6.448-6.994 7.909 7.182c.288.257.73.236.99-.042a.689.689 0 0 0-.042-.981l-8.429-7.656a.72.72 0 0 0-.505-.18.669.669 0 0 0-.485.23l-6.876 7.467-3.33-3.3a.71.71 0 0 0-.962-.027L5.24 27.782a.69.69 0 0 0-.064.981c.141.16.33.237.527.237z"/>
    </g>
</svg>
