<svg xmlns="http://www.w3.org/2000/svg" width="15" height="15" viewBox="0 0 15 15">
    <g fill="none" fill-rule="evenodd" stroke="#00999A" stroke-width=".912">
        <path d="M11.034 10.59c-.245.244-.236.65.02.906l2.176 2.176c.256.256.661.265.906.02.245-.245.236-.65-.02-.907L11.94 10.61c-.256-.256-.661-.265-.906-.02zM11.073 10.59L9.756 9.272M9.782 2.36C7.88.458 4.786.47 2.87 2.387.954 4.302.942 7.397 2.844 9.299c1.901 1.901 4.996 1.89 6.911-.026 1.917-1.917 1.929-5.011.027-6.913z"/>
    </g>
</svg>
