<svg xmlns="http://www.w3.org/2000/svg" width="16" height="16" viewBox="0 0 16 16">
    <path fill="#00999B" fill-rule="nonzero" d="M15.783 14.616l-2.986-2.955c2.266-2.822 2.053-6.975-.533-9.558A7.103 7.103 0 0 0 7.198 0c-1.92 0-3.732.745-5.092 2.103A7.098 7.098 0 0 0 0 7.188c0 1.943.747 3.727 2.106 5.085 1.36 1.331 3.146 2.103 5.092 2.103 1.627 0 3.226-.559 4.48-1.57l2.959 2.954c.16.16.346.24.56.24.213 0 .426-.08.56-.24.32-.32.32-.825.026-1.144zm-2.986-7.428a5.47 5.47 0 0 1-1.653 3.94c-1.066 1.038-2.453 1.65-3.946 1.65a5.486 5.486 0 0 1-3.945-1.65C2.213 10.063 1.6 8.678 1.6 7.188a5.47 5.47 0 0 1 1.653-3.94c1.066-1.038 2.426-1.65 3.945-1.65 1.493 0 2.906.585 3.946 1.65s1.653 2.423 1.653 3.94z"/>
</svg>
