<svg xmlns="http://www.w3.org/2000/svg" width="17" height="20" viewBox="0 0 17 20">
    <g fill="none" fill-rule="evenodd" stroke="#70757D" stroke-linecap="round">
        <path d="M4.446 7.619L.506 1.563C.488 1.535.512 1.5.549 1.5L5.837 1.5l2.594 4.296M12.586 7.8l3.876-6.232c.02-.031-.004-.067-.043-.067L11.134 1.5 8.087 6.344"/>
        <path d="M14.985 12.845a6.5 6.5 0 1 0-13.002-.001 6.5 6.5 0 0 0 13.002 0z"/>
        <path d="M10.58 13.561c-.089.09-.138.231-.112.34l.362 2.253c.016.102-.098.178-.19.128l-1.967-1.076a.397.397 0 0 0-.155-.056.386.386 0 0 0-.158.057l-1.967 1.075c-.093.05-.205-.026-.188-.128l.362-2.263c.024-.099-.023-.24-.11-.328l-1.61-1.583c-.074-.072-.033-.195.071-.212l2.19-.333c.138-.036.232-.1.276-.193l.983-2.05a.13.13 0 0 1 .232 0l.982 2.05c.055.11.161.19.27.19l2.2.337a.124.124 0 0 1 .072.21l-1.544 1.582z"/>
    </g>
</svg>
