<svg xmlns="http://www.w3.org/2000/svg" width="28" height="29" viewBox="0 0 28 29">
    <g fill="none" fill-rule="evenodd" stroke="#474A4F" stroke-width=".9">
        <path d="M5.683 13.914L4.6 16.847a.452.452 0 0 0 .107.48l6.73 6.678a.455.455 0 0 0 .483.102L14.844 23M12.734 6.659l-4.936.02a1.04 1.04 0 0 0-.732.306L.468 13.638a.103.103 0 0 0 .073.176l5.262-.021M22.04 15.89l.02 4.937c0 .275-.107.539-.3.733l-6.599 6.653a.103.103 0 0 1-.176-.073l-.022-5.261"/>
        <path stroke-linecap="round" d="M.698 23.739l3.208-3.234M5.326 28.329l3.208-3.234M1.969 27.086l3.886-3.919M21.64 10.744a2.459 2.459 0 1 0-3.49-3.463 2.459 2.459 0 0 0 3.49 3.463z"/>
        <path stroke-linecap="round" d="M27.414 1.96a.519.519 0 0 0-.527-.522 22.431 22.431 0 0 0-15.33 6.597l-5.594 5.64 4.692 4.654 4.69 4.653 5.595-5.64A22.431 22.431 0 0 0 27.415 1.96z"/>
    </g>
</svg>
