<svg xmlns="http://www.w3.org/2000/svg" width="28" height="19" viewBox="0 0 28 19">
    <g fill="none" fill-rule="evenodd">
        <path stroke="#000" stroke-width=".8" d="M7.815 16.102h10.171V1.228a.658.658 0 0 0-.65-.664H1.212a.658.658 0 0 0-.65.664v14.209c0 .367.292.665.65.665h1.503M.563 11.238h17.422M20.104 16.102h-2.118"/>
        <path stroke="#000" stroke-width=".8" d="M17.986 5.288h4.768l2.313 3.25 2.254 2.396v5.168h-2.118"/>
        <path stroke="#000" stroke-width=".8" d="M25.203 16.102c0-1.441-1.142-2.609-2.549-2.609-1.408 0-2.55 1.168-2.55 2.609s1.142 2.61 2.55 2.61c1.407 0 2.549-1.169 2.549-2.61z"/>
        <path fill="#000" d="M23.195 16.102a.548.548 0 0 0-.542-.554.548.548 0 0 0-.54.554c0 .306.242.554.54.554.3 0 .542-.248.542-.554"/>
        <path stroke="#000" stroke-width=".8" d="M7.815 16.102c0-1.441-1.143-2.609-2.55-2.609-1.407 0-2.55 1.168-2.55 2.609s1.143 2.61 2.55 2.61c1.407 0 2.55-1.169 2.55-2.61z"/>
        <path fill="#000" d="M5.807 16.102a.548.548 0 0 0-.542-.554c-.3 0-.542.248-.542.554 0 .306.242.554.542.554.3 0 .542-.248.542-.554"/>
        <path stroke="#000" stroke-width=".8" d="M25.067 8.538h-7.082"/>
    </g>
</svg>
