<svg xmlns="http://www.w3.org/2000/svg" width="95" height="93" viewBox="0 0 95 93">
    <g fill="none" fill-rule="evenodd">
        <rect width="95" height="93" fill="#00A9F2" rx="2"/>
        <circle cx="47.5" cy="32.5" r="22.5" fill="#0096DC"/>
        <path fill="#FFF" d="M57 26.844c-.707.313-1.46.52-2.244.621a3.903 3.903 0 0 0 1.713-2.173 7.741 7.741 0 0 1-2.47.952A3.887 3.887 0 0 0 51.154 25c-2.157 0-3.893 1.767-3.893 3.932 0 .312.026.611.09.897-3.238-.16-6.103-1.726-8.028-4.112a3.986 3.986 0 0 0-.533 1.987c0 1.361.694 2.568 1.73 3.267a3.82 3.82 0 0 1-1.76-.484v.043a3.94 3.94 0 0 0 3.12 3.862c-.316.088-.662.13-1.02.13-.25 0-.502-.015-.738-.067.505 1.556 1.937 2.701 3.64 2.738a7.781 7.781 0 0 1-4.83 1.677 7.23 7.23 0 0 1-.932-.054 10.894 10.894 0 0 0 5.975 1.764c7.168 0 11.087-5.992 11.087-11.186 0-.174-.006-.342-.014-.509A7.811 7.811 0 0 0 57 26.845"/>
    </g>
</svg>
