<svg xmlns="http://www.w3.org/2000/svg" width="128" height="103" viewBox="0 0 128 103">
    <g fill="none" fill-rule="evenodd" stroke="#00999A">
        <g stroke-width="1.5">
            <path d="M52.415 67.245V3.689a2 2 0 0 1 2-2h58.326l14.505 14.784v82.75H70.37"/>
            <path d="M112.588 1.688v14.779h14.656"/>
        </g>
        <path stroke-width="1.5" d="M58.127 16.471h37.21V9.08h-37.21zM105.888 71.5H73.674V36.682h20.273v13.772h11.941zM114.41 71.5V49.405M111.187 49.406h6.447M111.187 71.5h6.447M93.663 27.742H73.386M73.385 30.977V24.51M93.663 30.977V24.51M64.56 71.5V35.405M61.336 35.407h6.447M61.336 71.5h6.447M90.688 93.41h30.562v-8.797H90.688zM111.187 93.41v-8.797M101.477 93.41v-8.797M90.69 89.011h30.561"/>
        <g stroke-width="1.8">
            <path d="M45.653 43.3c0-4.8-3.883-8.687-8.665-8.687-4.786 0-8.665 3.886-8.665 8.687 0 4.806 3.879 8.692 8.665 8.692 4.782 0 8.665-3.886 8.665-8.692z"/>
            <path stroke-linecap="round" d="M15.604 66.413C21.203 72.07 28.723 75.539 37 75.539c8.14 0 15.56-3.355 21.126-8.856"/>
            <path d="M41.447 43.3c0-2.467-1.994-4.476-4.463-4.476-2.464 0-4.458 2.01-4.458 4.476 0 2.472 1.994 4.481 4.458 4.481 2.469 0 4.463-2.01 4.463-4.48zM39.174 34.612v-4.454a2 2 0 0 0-2-2h-.376a2 2 0 0 0-2 2v4.454M31.543 50.036L8.277 88.83v3.085h3.304l23.896-40.057M42.095 50.036L65.361 88.83v3.085h-3.303L38.162 51.858"/>
            <path stroke-linecap="round" d="M8.277 91.917l-6.593 9.433M65.259 91.917l6.593 9.433M52.415 75.754v23.47H70.37"/>
        </g>
    </g>
</svg>
