<svg xmlns="http://www.w3.org/2000/svg" width="153" height="100" viewBox="0 0 153 100">
    <g fill="none" fill-rule="evenodd" stroke="#00999A" stroke-width="1.35">
        <path d="M142.615 43.455V24.526c0-12.768-10.29-23.138-23.032-23.208-12.841-.074-23.291 10.34-23.291 23.208v67.419c0 3.867-3.128 7.003-6.987 7.003-3.86 0-6.987-3.136-6.987-7.003V19.726c0-3.793-3.07-6.87-6.858-6.87s-6.858 3.077-6.858 6.87v3.502H1.316v-4.023c0-3.479 2.811-6.298 6.282-6.3l67.862-.049"/>
        <path d="M15.032 23.228v67.38c0 4.063 3.288 7.36 7.344 7.36h63.36M29.445 12.886c3.692-6.88 11.025-11.57 19.465-11.57h70.673M142.615 28.6l8.786 7.69-26.86 23.435H106.27l-10.158-8.57M96.111 68.714l10.157-8.99M124.54 59.725l26.86 24.543"/>
        <path d="M151.4 36.289v45.915a4.633 4.633 0 0 1-4.628 4.637H96.11M23.626 40.406h44.09a.9.9 0 0 0 .9-.9v-8.272a.9.9 0 0 0-.9-.9h-44.09a.9.9 0 0 0-.9.9v8.272a.9.9 0 0 0 .9.9z"/>
        <path stroke-linecap="round" d="M22.727 46.625h33.256M22.727 52.063h33.256M22.727 58.421h45.89M22.727 64.781h45.89M22.727 71.14h45.89"/>
        <path d="M68.618 84.205c0-3.126-2.529-5.662-5.648-5.662-3.12 0-5.648 2.536-5.648 5.662a5.653 5.653 0 0 0 5.648 5.659 5.653 5.653 0 0 0 5.648-5.66zM104.549 45.707V24.99M113.828 45.707V24.99M96.324 25.016h35.805a.9.9 0 0 1 .9.9v18.916a.9.9 0 0 1-.9.9H96.322M123.558 46.101V25.385M132.886 31.892H96.618M132.886 38.693H96.618"/>
    </g>
</svg>
