<svg xmlns="http://www.w3.org/2000/svg" width="22" height="19" viewBox="0 0 22 19">
    <g fill="none" fill-rule="evenodd">
        <path fill="#FFF" d="M11.913 13.5H9.687a.187.187 0 0 0-.187.186v2.227c0 .104.084.187.187.187h2.226a.187.187 0 0 0 .187-.187v-2.227a.187.187 0 0 0-.187-.186M7.413 13.5H5.187a.187.187 0 0 0-.187.186v2.227c0 .104.084.187.187.187h2.226a.187.187 0 0 0 .187-.187v-2.227a.187.187 0 0 0-.187-.186M16.413 13.5h-2.226a.187.187 0 0 0-.187.186v2.227c0 .104.084.187.187.187h2.226a.187.187 0 0 0 .187-.187v-2.227a.187.187 0 0 0-.187-.186"/>
        <path stroke="#FFF" stroke-linecap="round" stroke-width=".8" d="M19.477 11.068H1.905v7.317h17.013c.308 0 .559-.129.559-.286v-7.031zM.55 11.06h10.14V8.387H.55z"/>
        <path stroke="#FFF" stroke-linecap="round" stroke-width=".8" d="M10.69 11.059h8.787V3.743H10.69zM9.129 3.735h11.91V1.062H9.13z"/>
        <path fill="#FFF" d="M16.427 6h-2.239a.19.19 0 0 0-.188.192v2.29a.19.19 0 0 0 .188.191h2.239a.19.19 0 0 0 .188-.191v-2.29A.19.19 0 0 0 16.427 6"/>
    </g>
</svg>
